<svg xmlns="http://www.w3.org/2000/svg" xmlns:xlink="http://www.w3.org/1999/xlink" viewBox="0 0 156.6 263.39"><defs><style>.cls-1{isolation:isolate;}.cls-2{fill:#a36190;}.cls-3{fill:#a70e13;}.cls-4{fill:#f47e70;}.cls-5{fill:#cacbb3;}.cls-6{fill:#ed1d24;}.cls-7{fill:#3cafe4;}.cls-8{fill:#ee513a;}.cls-9{fill:#f17654;}.cls-10,.cls-41{fill:#fff;}.cls-10{opacity:0.28;mix-blend-mode:overlay;}.cls-11{fill:#a91d20;}.cls-12{fill:#891416;}.cls-13{fill:#f38568;}.cls-14{fill:#ee4e26;}.cls-15{fill:#c51a1f;}.cls-16{fill:#c74430;}.cls-17{fill:#bc242a;}.cls-18{fill:#881416;}.cls-19{fill:#6e497d;}.cls-20{fill:#bc8dad;}.cls-21{fill:#f69787;}.cls-22{fill:#b94f58;}.cls-23{fill:#d56e62;}.cls-24{fill:#f9ae9c;}.cls-25{fill:#9c414a;}.cls-26{fill:#7f1012;}.cls-27{fill:#c83e35;}.cls-28{fill:#8a1517;}.cls-29{fill:#680203;}.cls-30{fill:#2b82a9;}.cls-31{fill:#165c7a;}.cls-32{fill:#86c4eb;}.cls-33{fill:#c4262d;}.cls-34{fill:#033f56;}.cls-35{fill:#500000;}.cls-36{fill:#5c0000;}.cls-37{fill:#5f0000;}.cls-38{fill:#7c3138;}.cls-39{fill:#4e305a;}.cls-40{fill:#700c0d;}.cls-42{mix-blend-mode:color-dodge;fill:url(#radial-gradient);}.cls-43,.cls-45{opacity:0.37;}.cls-44,.cls-45{fill:#fcaf17;}</style><radialGradient id="radial-gradient" cx="14.89" cy="222.42" r="159.81" gradientUnits="userSpaceOnUse"><stop offset="0" stop-color="#fff"/><stop offset="1"/></radialGradient></defs><g class="cls-1"><g id="Layer_8" data-name="Layer 8"><path class="cls-2" d="M119.43,29.8a28.2,28.2,0,0,1,5.84,10,127.07,127.07,0,0,1,2.8,13.08l3,6.31,4,5.83L115.22,105.7l-24,6.77s7.48-13.08,8.88-17.75,2.33-13.31,2.33-13.31.94-10.28-.93-18.45-5.84-19.61-5.84-19.61a7.53,7.53,0,0,1,1.63-7.94C100.75,31.9,112.89,27.47,119.43,29.8Z" transform="translate(-72.38 -28.58)"/><path class="cls-3" d="M113.59,99.39s-9.57,3.74-14.71,6.31-10.28,10-10.28,10l-1.86,5.83s-.94,4-2.34,5.61-4,4.67-4,4.67a4,4,0,0,0-.93,2.8,8.44,8.44,0,0,0,1.16,2.8s-3.5,3-4,5.14a22.34,22.34,0,0,0-.46,4.2l1.16,3.27s-3.26,4-3.73,7.24a10.49,10.49,0,0,0,.47,5.37l1.16,3.51s-3,5.37-2.33,10.27a22.35,22.35,0,0,0,3,8.41l2.11,2.8s1.63-8.41,10.74-18.68,22-18.45,22-18.45,6.54-10.51,7.94-15.88,2.8-10.27,2.8-10.27.23-13.55-1.87-16.12a28.71,28.71,0,0,0-4.67-4.43Z" transform="translate(-72.38 -28.58)"/><path class="cls-3" d="M179.21,101.49A1.94,1.94,0,0,0,182,101l2.8-3.27a33.62,33.62,0,0,0,3.27,1.86,5.74,5.74,0,0,1,2.57,2.57,7.67,7.67,0,0,1,4.44-.23,7.3,7.3,0,0,1,3,2.33,17.52,17.52,0,0,0,9.81.24,54.87,54.87,0,0,0,9.11-3,3.83,3.83,0,0,1,4,.24c1.87,1.4,1.87,4.9,1.87,4.9a8.27,8.27,0,0,1-1.17,3.5,2.27,2.27,0,0,1-2.1.94l-7.94.93-4.91,1.64-4.43,2.1,9.34,1.16,13.54,2.57s3.27,1.17,3.5,5.61-.93,5.6-.93,5.6a2.29,2.29,0,0,1-2.1,1.64,4.84,4.84,0,0,1-2.8-.94l-1.17-1.17-8.87-4.2s-4.44.23-5.84.47-3.74,3.27-3.74,3.27l-2.1,2.1-1.17.47s-1.87,6.53-3.27,8.17-5.37,5.14-5.37,5.14-3.73-2.57-6.54-4.44a24.45,24.45,0,0,0-7-2.8l-3.74.23S174.54,114.34,179.21,101.49Z" transform="translate(-72.38 -28.58)"/><path class="cls-4" d="M127.83,135.59l8.88-11.68a35.39,35.39,0,0,1-6.77,4.2c-3.27,1.4-6.54.7-7.48-.93a6.29,6.29,0,0,1-.93-2.8s.47-13.31-1.87-16.12-5.37-3.73-6.07-8.87S115,87,115,87s3.74-9.57,7-13.77,10.74-10.75,10.74-10.75l8.41-5.6,2.1-8.87s-.24-6.31-.47-7a36.87,36.87,0,0,1-.23-4.67,7,7,0,0,1,3-1.63c1.87-.47,6.31.23,6.31.23s1.16,0,1.63,1.63,2.34,8.88,2.34,8.88l2.33,4.67,3.5-6.07.71-3.74s3.26-1.17,5.37-.7a7.76,7.76,0,0,1,3.73,2.57l.24,1.63-1.64,5.61.47,4.43,4.9,2.34s4.44-1.63,6.54-4.2,2.1-4,2.1-4a4.89,4.89,0,0,1,4.67.93c2.34,1.87,2.1,3,2.1,3l-.23,1.16-1.63.47s-3,3-3.51,5.37-.93,6.54-.93,6.54l2.33,3.5,1.17,4,18-7.24s3.27-3,5.14-1.4a8.62,8.62,0,0,1,2.8,6.07,49.35,49.35,0,0,1-1.4,7.24L210.27,80l-3.51-.47-14,6.77-7,4.91a18.17,18.17,0,0,1-.94,4.43c-.7,1.64-2.33,6.31-3,6.31a17.39,17.39,0,0,1-2.57-.47,127.62,127.62,0,0,0-4,18,187.39,187.39,0,0,0-1.17,20.32l.23,4.67-15.41-5.61S135.07,133.48,127.83,135.59Z" transform="translate(-72.38 -28.58)"/><path class="cls-5" d="M134.14,127l-7.24,9.1s-3.74.7-4.9,2.1a10.39,10.39,0,0,0-1.64,4l-8.87,7.48s5.6-10.28,6.77-13.78,3.27-11.44,3.27-11.44,1.4,4.67,4.9,4.2,10.75-6.3,10.75-6.3Z" transform="translate(-72.38 -28.58)"/><path class="cls-6" d="M105.18,154.27l-11.91,10s-7,6.3-10,12.61-5.13,11.91-5.13,11.91-1.17,7.7-.47,11,4.44,10.74,4.44,10.74L90,218.72s9.58,7.24,15,9.11,20.55,6.07,20.55,6.07L141.15,239s12.37,3.51,20.08,9.11,14.24,9.34,14.24,9.34a27,27,0,0,0,16.12,3.27c9.57-.93,16.11-9.11,16.11-9.11a77.81,77.81,0,0,0,10.74-23.81,128.19,128.19,0,0,0,3.74-25.93,89.74,89.74,0,0,0-2.34-25.45A163.34,163.34,0,0,0,214,157.3l-8.87-17.51L200,133a18.72,18.72,0,0,1-4.44,7.7,39.49,39.49,0,0,0-4.2,4.91,66.09,66.09,0,0,1-6.54-4.44c-1.87-1.63-5.83-2.8-5.83-2.8l-4.91.23.23,5.84a63.35,63.35,0,0,0-24.05-7.24c-14.24-1.4-20.08-2.1-20.08-2.1l-3.27.93-4.9,2.1-1.64,4Z" transform="translate(-72.38 -28.58)"/><path class="cls-3" d="M107.05,261s2.34-10.74.24-17.28-6.31-18-6.31-18l9.34,3.74,21.48,6.07.71,16.81-.94,10.51-.93,5.84s-9.11.93-16.12-.7S106.12,265.19,107.05,261Z" transform="translate(-72.38 -28.58)"/><path class="cls-7" d="M130.84,235.48s2.24,12.63,1.5,16.86S131,265,131,265l-3.17,16.43s-1.31,2.43,3.17,4.86a65.22,65.22,0,0,0,11.39,4.29s8.22,1.87,12.14,1.12a5.28,5.28,0,0,0,4.48-3.92l-2.61-20.17-1.49-19.05V245Z" transform="translate(-72.38 -28.58)"/><path class="cls-8" d="M118.26,151.58c-11.18,6.87-22.56,14.82-30.15,25.75-8.73,12.59-7.89,29.62,7.13,37.17,7.6,3.82,17.73,2.56,23.49-3.7,2.39-2.6,4-5.82,5.84-8.79,7.24-11.3,19.61-18.74,32.7-21.7,16-3.62,33.33-2.69,43.57,11.77a44.76,44.76,0,0,1,7.59,21.66c.12,1.18.26,2.5,1.18,3.25a3,3,0,0,0,3.78-.49,8.21,8.21,0,0,0,1.83-3.71c2.33-8.08,3.77-16.5,3.16-24.88a67.17,67.17,0,0,0-8.19-26.29c-5.44-9.39-17.78-11.27-27.51-12.54L151.1,145c-5.28-.69-10.66-1.38-15.93-.54C129.09,145.41,123.51,148.35,118.26,151.58Z" transform="translate(-72.38 -28.58)"/><path class="cls-9" d="M144.91,152.58c-20.65-13.79-55.32,11.27-47,35.44,2.14,6.25,9.28,11,15.48,8.74,3-1.1,5.23-3.54,7.35-5.91,4.46-5,9-10.16,14.74-13.56,3.34-2,7-3.29,10.21-5.51s5.88-5.64,5.8-9.5C151.36,158.22,148.28,154.83,144.91,152.58Z" transform="translate(-72.38 -28.58)"/><path class="cls-10" d="M163.59,155.2c.67-4.36-7.66-9.07-11.3-9.95-6-1.44-14.39,1.46-20,3.44-12.69,4.48-24.34,12.67-33.66,21.87-4.38,4.32-8.53,9.45-9.24,15.56a4.16,4.16,0,0,0,.38,2.68c1.47,2.29,5,.54,7-1.27a106.63,106.63,0,0,1,48.06-24.31c4.82-1,9.77-1.75,14.31-3.67C161.16,158.7,163.27,157.34,163.59,155.2Z" transform="translate(-72.38 -28.58)"/><path class="cls-11" d="M152.71,232a6.5,6.5,0,0,0,1.91-1.31c1.7-1.69,2.23-4.19,2.68-6.54a29.26,29.26,0,0,0,4.57,13.32c1.63,2.52,4.73,3,7.33,4.29a37.29,37.29,0,0,0,9.91,3A23.94,23.94,0,0,0,199,239.47c5-4.3,8.19-10.37,10.8-16.46,7.6-17.77,10-34.29,9.1-53.53,4.51,27.3,6.29,54.25-10,78.53-4.51,6.73-11.64,12.2-20,12.78-4,.29-8.43-1.18-12-3a55.18,55.18,0,0,1-4.84-2.89c-8.44-5.42-16.44-10.39-25.75-14.21-16.62-6.83-34.71-9.42-50.33-18.86,5.43,2.46,11.28,2.11,17.06,2.56,5.94.46,12.08,3.28,17.78,5.05,5.23,1.63,10.54,3.27,16,3.46A12.86,12.86,0,0,0,152.71,232Z" transform="translate(-72.38 -28.58)"/><path class="cls-12" d="M175.45,145.36A50,50,0,0,1,203,170.71,32.86,32.86,0,0,1,201.6,160c.06-1.68.4-3.6,1.84-4.46,1.75-1.05,4,.1,5.66,1.22,3.12,2,6.44,4.34,7.64,7.88-2.25-5.85-4.84-12.13-10.21-15.36-6-3.6-13.89-2.47-19.94-5.94-1.91-1.1-3.56-2.61-5.53-3.57a11.3,11.3,0,0,0-7-.92,7.16,7.16,0,0,0,3.83,7.73Z" transform="translate(-72.38 -28.58)"/><path class="cls-11" d="M83.58,179.94a34.17,34.17,0,0,0,14.55,41.5,67.49,67.49,0,0,0,8.37,4L126.72,234q-12.73-4.23-25.36-8.79a50.1,50.1,0,0,1-7.65-3.26,33.52,33.52,0,0,1-7.89-6.4c-4.7-5-8.35-11.27-9.14-18.09s1.62-14.23,7.08-18.4a1.71,1.71,0,0,1-1.25,2.3Z" transform="translate(-72.38 -28.58)"/><path class="cls-13" d="M129.18,136.27a4,4,0,0,0-3,4.15c3.64,1.16,7.56.42,11.37.36a62,62,0,0,1,7.7.54l23.2,2.58a91,91,0,0,0-40-7.8Z" transform="translate(-72.38 -28.58)"/><path class="cls-14" d="M161.84,247.12c4.88,2.3,9.81,4.61,15,5.87s10.91,1.4,15.93-.59,8.26-5.76,12-9.52a2.9,2.9,0,0,1,2-1.12,6.75,6.75,0,0,0,1.24.18,1.94,1.94,0,0,0,1.16-1,80.81,80.81,0,0,0,12.88-32.82c-1.56,10.08-2.87,19.62-6.59,29.22-3.32,8.56-8,18.1-16.89,22-3.64,1.61-7.8,1.7-11.76,1.17a41.09,41.09,0,0,1-25-13.2Z" transform="translate(-72.38 -28.58)"/><path class="cls-15" d="M185.56,241.13c2.29-5.36,5.83-10.09,8.62-15.22s4.87-11,3.87-16.72a2.22,2.22,0,0,0-.63-1.38,2.12,2.12,0,0,0-1.27-.33,7.86,7.86,0,0,0-4.33,1.28,51,51,0,0,0,9.26-16.68c-1.58,11,1.83,23-3.26,32.94-3.31,6.45-9.89,11.07-12,18Z" transform="translate(-72.38 -28.58)"/><path class="cls-15" d="M192.54,232.71c.29-1.31,1.55-2.15,2.73-2.79a5.17,5.17,0,0,1,3.7-.84,3.64,3.64,0,0,1,2.23,2.16,11,11,0,0,1,.66,3.12,24.88,24.88,0,0,0-.45-7.59c-.42-2.56-.84-5.11-1.25-7.67l-1,1.93c-2.41,4.84-4.87,9.75-8.52,13.75Z" transform="translate(-72.38 -28.58)"/><path class="cls-15" d="M205.61,183c-.21-1.37-.36-2.75-.46-4.13a7,7,0,0,1,.8-4.52c.9-1.27,3-1.76,4-.55a24.68,24.68,0,0,0-7.14-7.36,29.25,29.25,0,0,1,1.66,8.82l.72,8.66a5.76,5.76,0,0,0-.2-3.69Z" transform="translate(-72.38 -28.58)"/><path class="cls-15" d="M169,202.12c-2.1-1.58-6.12-8.14-3.61-10.59a5,5,0,0,1,2.86-1.15,16.58,16.58,0,0,1,9.67,1.59c-9.63-4.82-19.62-5-30-7.43a84.94,84.94,0,0,1,10.42,26.29q-1.68-7.35-3.35-14.72c-.21-.93-.3-2.14.54-2.59a2,2,0,0,1,1.42-.05,15.87,15.87,0,0,1,11,9.1Z" transform="translate(-72.38 -28.58)"/><path class="cls-15" d="M145.78,216.92a33.42,33.42,0,0,1-4.61-17.55c0-2,.5-4.35,2.32-5.16,2.3-1,4.69,1.18,6.12,3.26a52.44,52.44,0,0,1,7.39,16,62.65,62.65,0,0,0-8.64-25.26,1.64,1.64,0,0,0-.65-.7,1.61,1.61,0,0,0-1.46.36A45.62,45.62,0,0,0,126.91,215a45.88,45.88,0,0,1,8.38-13.4,2.89,2.89,0,0,1,1.39-1,2.15,2.15,0,0,1,2.25,1.49,10.83,10.83,0,0,1,.44,2.9c.74,6.3,7.59,10.59,8.21,16.9Z" transform="translate(-72.38 -28.58)"/><path class="cls-15" d="M159.06,231.75a25.38,25.38,0,0,1-.48-4.91c0-1.49.35-3.28,1.73-3.83a4.11,4.11,0,0,1,3,.43,29,29,0,0,1-5.12-9.12,70.17,70.17,0,0,0,1.44,18.62Z" transform="translate(-72.38 -28.58)"/><path class="cls-15" d="M202.1,208.06c.51-1.22,0-2.6-.06-3.92s1-2.95,2.27-2.47a2.44,2.44,0,0,1,.71.49l10.27,9c-2.48-4.4-7.45-7.13-9.39-11.79a20.89,20.89,0,0,1-1.24-5.93,4.66,4.66,0,0,1,.11-2.17,1.58,1.58,0,0,1,1.7-1.07c.64.16,1,.81,1.3,1.39l3.08,6.12a60.59,60.59,0,0,1-6.11-16.08,76.61,76.61,0,0,0-3,23c0,2.21.16,4.59-1.05,6.45Z" transform="translate(-72.38 -28.58)"/><path class="cls-15" d="M192.9,176.36a9.58,9.58,0,0,1,5.11-5.15,2.58,2.58,0,0,1,1.88-.22,2.81,2.81,0,0,1,1.19,1.08,15.5,15.5,0,0,1,2.65,6.62,13.17,13.17,0,0,0-.34-5.91,83.06,83.06,0,0,0-2.54-8.91,47.92,47.92,0,0,1-9,13.2Z" transform="translate(-72.38 -28.58)"/><path class="cls-16" d="M141.74,180.78c.13-.05.19.19.08.26a.43.43,0,0,1-.38,0c-5.82-2.51-11.75-5.1-16.42-9.37a22.29,22.29,0,0,1,.5,16.57,82.82,82.82,0,0,0-4.3,15.28,50.7,50.7,0,0,1,9.57-20.79,9.46,9.46,0,0,1,2.27-2.24c1.94-1.23,4.43-1.08,6.72-.79.7.09,1.59.39,1.6,1.1Z" transform="translate(-72.38 -28.58)"/><path class="cls-8" d="M101,178.31c.74-4,3.12-7.48,5.45-10.81,1.46-2.09,3.3-4.38,5.85-4.44a5.69,5.69,0,0,1,4.06,1.9,21.58,21.58,0,0,1,2.65,3.76,53.57,53.57,0,0,0,6,7.86l-3.39-8.69a17.65,17.65,0,0,0-3.41-6.15c-1.49-1.5-3.5-2.45-4.82-4.11-.63-.79-1.49-1.86-2.4-1.41a99.64,99.64,0,0,0-10.22,21.52Z" transform="translate(-72.38 -28.58)"/><path class="cls-17" d="M104.33,102.77c-2.46,1.36-11.19,7.48-6.44,10.69,1.63,1.11,3.79.91,5.74.66a34,34,0,0,0-11.24,9.58,1.38,1.38,0,0,0-.39,1.08c.13.55.84.71,1.41.74a39.93,39.93,0,0,0,7-.19c-5.2,1.78-9.16,6-12.9,10-2.17,2.32-4.46,4.94-4.6,8.11a12.05,12.05,0,0,0,6.67-1c-5.23,2.44-9.53,10-6.47,15.45-1.85,2.13-3.51,4.6-3.78,7.4s1.25,5.94,4,6.67c6.75-15,26.57-20.33,34.4-34.85,6.4-11.86,3.39-24.71-3.64-35.31a2.91,2.91,0,0,0-.93-1,2.64,2.64,0,0,0-1.48-.19,14.85,14.85,0,0,0-10,5Z" transform="translate(-72.38 -28.58)"/><path class="cls-18" d="M115,87.47c-2.34,2.83-4.72,5.73-6,9.17s-1.23,7.59,1,10.48c1.32,1.7,3.32,2.86,4.35,4.76a10.94,10.94,0,0,1,.91,5.24,111.7,111.7,0,0,1-5,33,81.37,81.37,0,0,0,8.78-17.58c3-8.41,4.41-18.39-.58-25.81-.93-1.38-2.06-2.64-2.92-4.07-3-5-2.22-11.41-1.14-17.18Z" transform="translate(-72.38 -28.58)"/><path class="cls-19" d="M109.89,43a147,147,0,0,1,4,46.81c2.66-10.08,9.76-18.3,16.64-26.14-7.63-7.41-4.25-21.27-11.13-29.39A17.31,17.31,0,0,1,109.12,43Z" transform="translate(-72.38 -28.58)"/><path class="cls-20" d="M98.46,44.73A65.42,65.42,0,0,1,103,73.29,109.27,109.27,0,0,1,101,88.79c-.83,4.19-1.47,10.31-3.74,14,5.53-9,6.44-19.68,7.72-29.87.4-3.27,1.4-6.74,1.47-10,0-.84-.86-2-.06-2.69,1.17-1,2.3.47,2.83,1.41A36.6,36.6,0,0,1,114,80.19c1.1-6.34-.29-12.81-1.28-19.17-1.34-8.66-1.69-15.74,5.48-21.57a3.8,3.8,0,0,1,1.62-.91,2.58,2.58,0,0,1,2.37,1.13,10.17,10.17,0,0,1,1.16,2.5,23.07,23.07,0,0,0,4,6.79,34.62,34.62,0,0,0-6.37-17.45c.79,1.1-3,5.69-3.66,6.43-1.77,1.88-4,3.06-6.13,4.45-4.29,2.82-8.1,3-13.18,2.49Z" transform="translate(-72.38 -28.58)"/><path class="cls-19" d="M103.7,34.17a4.33,4.33,0,0,0-1.79,8.32,7.12,7.12,0,0,0,4.69-.08,19.75,19.75,0,0,0,8.44-5c1.14-1.14,2.22-2.69,1.82-4.27a3.67,3.67,0,0,0-3.25-2.46,11,11,0,0,0-4.26.7,23.81,23.81,0,0,0-5.17,2.05c-.63.38-1.38.84-2.06.55Z" transform="translate(-72.38 -28.58)"/><path class="cls-21" d="M119.56,98.39c3.68,2.08,8.52.38,11.52-2.6s4.71-7,6.85-10.63a49.36,49.36,0,0,1,15-16c2-1.36,4.45-3.18,4-5.58a4.91,4.91,0,0,0-1.85-2.75c-4.23-3.6-10.48-4.16-15.76-2.46-3.29,1-6.49,3.67-9.17,5.84-5.74,4.65-8.91,11.53-11.4,18.31C116.9,87.77,112.41,94.33,119.56,98.39Z" transform="translate(-72.38 -28.58)"/><path class="cls-22" d="M124.64,101.56c2.27-1.31,5.36.67,5.92,3.22S129.8,110,128,111.9c1.54-1,3.48.66,4.16,2.35,1.95,4.81-.5,10.34-3.9,14.28,3.53-1.21,6.07-4.25,8.41-7.15,5.37-6.63,10.74-13.29,15.19-20.57-3.29-2.44-4.93-6.62-5.23-10.7-.48-6.43,1.18-14.13,8-17.08-4.24,1.84-7.68,5.18-10.47,8.87s-5,7.77-7.5,11.67a17.21,17.21,0,0,1-12.34,8.19Z" transform="translate(-72.38 -28.58)"/><path class="cls-22" d="M157.31,71.9c.8.11,1.15,1.16.87,1.92a4.79,4.79,0,0,1-1.56,1.8,19.81,19.81,0,0,0-6.13,9.56c.8-2.18,2.57-3.83,4.27-5.41A14.28,14.28,0,0,1,160,76.23a12.66,12.66,0,0,1,3.47-.44,77.23,77.23,0,0,1,9,.23c-1.25-2.73-4.16-4.39-7.11-4.92a28,28,0,0,0-8.94.33Z" transform="translate(-72.38 -28.58)"/><path class="cls-22" d="M171,85.14c-3,1.14-11.54,6.59-14.28,3.43a5.43,5.43,0,0,1-.94-4.39c.24-1.53.83-3,1.16-4.49a17.5,17.5,0,0,0-4.15,11.66c.16,6.74,4.25,13.13,11.13,14.48a5.9,5.9,0,0,0,2.74,0,7.73,7.73,0,0,0,3.2-2.31c10.41-10.64,22.41-20.61,36.89-24.07a11.29,11.29,0,0,1-3.19-6.86Z" transform="translate(-72.38 -28.58)"/><path class="cls-23" d="M154.45,99.72c.72,4.35,1.47,8.77,3.43,12.71s5.34,7.42,9.64,8.41a3.08,3.08,0,0,0,1.62,0,3.49,3.49,0,0,0,1.56-1.27,39.76,39.76,0,0,0,8.8-24.73l-7.19,7.42a12.2,12.2,0,0,1-4.23,3.24c-3.13,1.19-6.68-.38-9.17-2.61a18.54,18.54,0,0,1-5.85-10.54q1.22,6.66,2.53,13.3Z" transform="translate(-72.38 -28.58)"/><path class="cls-24" d="M152,102.9a93.79,93.79,0,0,0-11.33,22.73c-.75,2.22-1.38,4.78-.17,6.78,1.56,2.58,5.24,2.78,7.6,4.65A71.3,71.3,0,0,0,127.19,136l20.2-27.75a39.7,39.7,0,0,0,4.47-7.16,39.48,39.48,0,0,1-5.43,10.69Z" transform="translate(-72.38 -28.58)"/><path class="cls-24" d="M155.07,73a9.16,9.16,0,0,0-3.94,3.29,25.29,25.29,0,0,0-4.19,8.34c-.24.85-.28,2,.55,2.32a1.27,1.27,0,0,0,1.34-.53,4.4,4.4,0,0,0,.59-1.41,14.38,14.38,0,0,1,5.35-7.44,9.29,9.29,0,0,0,2.34-2,2.17,2.17,0,0,0-.1-2.8,2.07,2.07,0,0,0-2.06-.22,6.25,6.25,0,0,0-1.77,1.25Z" transform="translate(-72.38 -28.58)"/><path class="cls-24" d="M114.56,91.73A13.68,13.68,0,0,0,121,108.89a7.31,7.31,0,0,0,4.41.94,3.77,3.77,0,0,0,3.18-2.88,4.34,4.34,0,0,0-2.15-4,33.81,33.81,0,0,0-4.34-2.06,13.75,13.75,0,0,1-7.53-12,24.17,24.17,0,0,0-.35,8.09Z" transform="translate(-72.38 -28.58)"/><path class="cls-24" d="M122,114.48c-.44,2.23-.87,4.55-.27,6.74s2.59,4.18,4.85,4c2-.17,3.46-1.86,4.24-3.66a6.35,6.35,0,0,0,.55-3.53,3.51,3.51,0,0,0-2.11-2.74,6.7,6.7,0,0,0-1.95-.26A20.54,20.54,0,0,1,121,113.7a4.64,4.64,0,0,0,.07,2.31Z" transform="translate(-72.38 -28.58)"/><path class="cls-22" d="M143.3,38.19l4.38,1.35a1.89,1.89,0,0,1,.7.33,1.91,1.91,0,0,1,.47,1.16,68.37,68.37,0,0,0,4.59,15.85,9.06,9.06,0,0,1-6.22,3.49,6.33,6.33,0,0,1-6.09-3.27c-.93,1.74.43,4,2.27,4.71s3.91.28,5.79-.28a44.14,44.14,0,0,0,12.07-5.72,35.59,35.59,0,0,1-8-20.61,8.72,8.72,0,0,1-4.48,3.67,5.62,5.62,0,0,1-5.53-1.09Z" transform="translate(-72.38 -28.58)"/><path class="cls-22" d="M167.06,44.55a32.22,32.22,0,0,1-3.52,11.15,18.28,18.28,0,0,0,6.08-2.32,1.31,1.31,0,0,0,.51-.45,1.38,1.38,0,0,0,.06-.78,17.38,17.38,0,0,1,1.34-8.81,8.86,8.86,0,0,0-4.54,1.3Z" transform="translate(-72.38 -28.58)"/><path class="cls-22" d="M178.42,58.82A20.53,20.53,0,0,0,185,50.5a10.4,10.4,0,0,0,4.36,3,11.44,11.44,0,0,0-5.1,11.35,40.72,40.72,0,0,0-5.46-6.27c-.19-.17-.62-.21-.56,0Z" transform="translate(-72.38 -28.58)"/><path class="cls-25" d="M208.54,66.89c-2.06.65-3.07,3.22-2.88,5.19.17,1.7,1.06,5.44,3.48,5.13,1.18-.15,1.84-1.43,2.17-2.58a17,17,0,0,0,.6-2.92c.19-1.6.05-3.45-1.22-4.43A2.82,2.82,0,0,0,206.42,69Z" transform="translate(-72.38 -28.58)"/><path class="cls-26" d="M178.21,105.89a39.16,39.16,0,0,0,6.48,24.52,11.27,11.27,0,0,0,4.47,4.28c3.4,1.49,7.41-.19,10.23-2.6a20.39,20.39,0,0,1-5.45,10.54c-.95,1-2.19,1.9-3.53,1.66a5.38,5.38,0,0,1-2.37-1.46,20.62,20.62,0,0,0-12.69-4.9,2.73,2.73,0,0,1-1.68-.4,2.57,2.57,0,0,1-.63-2.12,109.2,109.2,0,0,1,5-30.74Z" transform="translate(-72.38 -28.58)"/><path class="cls-27" d="M178.48,105.73l5.17,2.45a2.5,2.5,0,0,1,1.07.76,2.9,2.9,0,0,1,.33,1.2,12.91,12.91,0,0,0,4.95,8.5,19.48,19.48,0,0,1-2.38-10.41,3.37,3.37,0,0,1,.43-1.71,2.44,2.44,0,0,1,2.65-.83,6.19,6.19,0,0,1,2.49,1.55,7.43,7.43,0,0,1,4.42-3.69,6.24,6.24,0,0,0-6.19-1.82,1.71,1.71,0,0,1-1.33,0,1.68,1.68,0,0,1-.53-.72,6.07,6.07,0,0,0-4.83-3.23,1.49,1.49,0,0,0-.52,0,1.44,1.44,0,0,0-.72.74,7.09,7.09,0,0,1-1.74,2.48c-.82.6-2.21.58-2.65-.34q-.49,2.94-1,5.88Z" transform="translate(-72.38 -28.58)"/><path class="cls-27" d="M197.68,104.5a1.67,1.67,0,0,0-1.63,1.2,2.22,2.22,0,0,0,1.34,2.38,5.92,5.92,0,0,0,2.93.32,104.05,104.05,0,0,0,11.78-1.68c1.57-.29,3.39-.77,4-2.25.37-.93.16-2.09.8-2.84A43.15,43.15,0,0,1,199.75,105a3.94,3.94,0,0,1-2.3-.53Z" transform="translate(-72.38 -28.58)"/><path class="cls-27" d="M202.62,118.18c6.62.86,13.27,1.72,19.66,3.66,1.21-.9,2.11-2.16,3.69-2.37a39.07,39.07,0,0,1-9.19-1.87,73.57,73.57,0,0,0-14.33-2.3,7.64,7.64,0,0,1-.46,3Z" transform="translate(-72.38 -28.58)"/><path class="cls-26" d="M200.43,123.38c1.44,1.36,3.63,1.46,5.62,1.48l4.93.06c-2.58.52-5.33,1.12-7.17,3-1.3,1.32-2.1,3.21-3.77,4-.69-3.38.9-7,0-10.29Z" transform="translate(-72.38 -28.58)"/><path class="cls-26" d="M224.61,122a2.16,2.16,0,0,0-1.4,1.32,5.23,5.23,0,0,0-.31,2,7.31,7.31,0,0,0,.45,3,2.23,2.23,0,0,0,1.37,1.39,2,2,0,0,0,2.1-1,5.93,5.93,0,0,0,.49-3.59,4.37,4.37,0,0,0-.7-2.39,1.56,1.56,0,0,0-2.21-.33Z" transform="translate(-72.38 -28.58)"/><path class="cls-26" d="M218.77,103.75a.71.71,0,0,0-.72.37,1.84,1.84,0,0,0-.23.83,4.29,4.29,0,0,0,.11,2,1.44,1.44,0,0,0,2.82,0,4.39,4.39,0,0,0,.11-1.77c-.05-.71-.22-1.56-.89-1.8s-1.4.34-1.7,1Z" transform="translate(-72.38 -28.58)"/><path class="cls-26" d="M204.91,115.81a6.92,6.92,0,0,0-.47,10.53c.32.3.71.65.64,1.09a1.13,1.13,0,0,1-.36.6l-2.69,3c-.45.5-1.18,1-1.72.63a32.79,32.79,0,0,0-.05-9.84,2.67,2.67,0,0,1,.11-1.79,3.62,3.62,0,0,1,.59-.65,5.84,5.84,0,0,0,1.64-3.08c.06-.32.16-.71.47-.78a.76.76,0,0,1,.5.12l.72.37a.44.44,0,0,0,.33.06c.11,0,.13-.23,0-.26Z" transform="translate(-72.38 -28.58)"/><path class="cls-26" d="M188.14,113a12.6,12.6,0,0,0,2,3.34,3.87,3.87,0,0,0,1.32,1.13,1.59,1.59,0,0,0,1.67-.13,2.34,2.34,0,0,0,.57-1.92,18.35,18.35,0,0,0-.65-4.23,6.34,6.34,0,0,0,7.54,4.73.73.73,0,0,1,.63,0c.25.19.13.59,0,.88a6.71,6.71,0,0,1-3.1,3.46,7.31,7.31,0,0,1-2.18.4,5.84,5.84,0,0,1-2.6-.18,5,5,0,0,1-1.89-1.48,16,16,0,0,1-3.7-7.78Z" transform="translate(-72.38 -28.58)"/><path class="cls-28" d="M106.86,243.32c0-2.89,1.93-7.38,5.1-8.13,2.88-.69,6.55,2.07,8.2,4.19,2.23,2.84,3.18,6.46,3.69,10a49.23,49.23,0,0,1,.18,12.25,26.48,26.48,0,0,0-13.33,1.59c.71,1.75,3,2.15,4.85,2.29l14.76,1.1a167.41,167.41,0,0,0,1.93-25.79c0-1.42-.08-3-1.05-4a5.88,5.88,0,0,0-2.57-1.34q-13.75-4.45-27.34-9.42a68,68,0,0,1,6,17.94,10.91,10.91,0,0,1,1.83-7.38Z" transform="translate(-72.38 -28.58)"/><path class="cls-29" d="M111.57,230.71c5.94,2.31,12,5.48,15.19,11,2.88,5,2.93,11.14,5,16.51l-.68-17.84A7.52,7.52,0,0,0,130,236c-1.5-1.92-4.33-1.91-6.75-2.18a38.5,38.5,0,0,1-7.45-1.86,9.26,9.26,0,0,1-3.14-1.48,3.13,3.13,0,0,1-1.2-3.08Z" transform="translate(-72.38 -28.58)"/><path class="cls-30" d="M132.92,251.32a6.81,6.81,0,0,1,9.21-4.9c3.58,1.7,4.82,6.11,5.44,10a105,105,0,0,1,.61,28,59.65,59.65,0,0,0-13.91-2.36c-1.31-.07-3.05.25-3.22,1.56-.13,1,.88,1.8,1.79,2.3a36.79,36.79,0,0,0,22.27,4.26,4.16,4.16,0,0,0,2-.62c1.25-.91,1.22-2.75,1.06-4.29-1.29-12.59-2.55-24.89-2.51-37.55a4.52,4.52,0,0,0-.43-2.42,3.93,3.93,0,0,0-1.42-1.26c-3.05-1.85-7-2.88-10.34-4.33a99.68,99.68,0,0,0-11.63-4.23,102.36,102.36,0,0,1,.59,20Z" transform="translate(-72.38 -28.58)"/><path class="cls-31" d="M147.71,248.18c3.66,3.83,5.88,8.77,8,13.61a84.21,84.21,0,0,0-.22-12.9A8.2,8.2,0,0,0,155,246c-.72-1.56-2.32-2.49-3.86-3.25a60.28,60.28,0,0,0-9.41-3.79c-2.92-.88-6.11-1-8.85-2.27-.42-.19-1.05-.32-1.25.1a.91.91,0,0,0,0,.49c.38,3.34.86,6.68,1.45,10C132.33,238.13,145.11,245.44,147.71,248.18Z" transform="translate(-72.38 -28.58)"/><path class="cls-31" d="M135.52,283a5.24,5.24,0,0,0-2.69.24,2,2,0,0,0-1.27,1.09c-.35,1,.76,1.94,1.74,2.43a34.47,34.47,0,0,0,22.13,3c0-1.42-1.22-2.5-2.43-3.22-4.45-2.67-9.74-3.6-14.93-3.78-2.25-.08-4.74.06-6.39,1.6Z" transform="translate(-72.38 -28.58)"/><path class="cls-32" d="M141,251.38c-1.73-3.24-4.08-1.44-5,1.37a15.67,15.67,0,0,0-.62,4.15c-.28,4.61-.3,8.86-1.23,13.45a39.14,39.14,0,0,0-.82,4.92,1,1,0,0,0,.17.76,1,1,0,0,0,.86.13c3.24-.53,7-1.11,9.43,1.07-.26-4.37.11-8.75,0-13.13S143.09,255.25,141,251.38Z" transform="translate(-72.38 -28.58)"/><path class="cls-33" d="M114.19,239.44a5.27,5.27,0,0,1,1.94,2.46c.61,1.3,3.53,16,2.41,15.73a16.47,16.47,0,0,0-6.92-.07,46.82,46.82,0,0,0-.48-7.86C110.8,247.79,109,236.46,114.19,239.44Z" transform="translate(-72.38 -28.58)"/><path class="cls-32" d="M133.83,279.62a1.17,1.17,0,0,0-1.74.89c0,1.12,1.43,1.57,2.55,1.67l6.85.59a4.61,4.61,0,0,0,2.06-.12,1.61,1.61,0,0,0,1.1-1.58c-.14-1-1.45-1.36-2.49-1.45l-8.77-.73Z" transform="translate(-72.38 -28.58)"/><path class="cls-34" d="M136.37,287.81l13.87-1.91a52.5,52.5,0,0,0-15.35-3.83c-1.26-.12-2.89.05-3.23,1.27a2.89,2.89,0,0,0,.72,2.26c.77,1.12,1.89,2.4,3.22,2.09Z" transform="translate(-72.38 -28.58)"/><path class="cls-35" d="M114.81,262.45a5.16,5.16,0,0,0-2.36.42c-.27.12-.55.29-.6.58s.34.67.69.84c5.13,2.45,11.18,1.41,16.8,2.27a1.93,1.93,0,0,0,1,0c.62-.28.72-1.11.73-1.8a2.2,2.2,0,0,0-.11-.92c-.32-.72-1.26-.88-2.05-.93q-7.45-.53-14.92-.77Z" transform="translate(-72.38 -28.58)"/><path class="cls-23" d="M132.93,135.49a90.1,90.1,0,0,1,32.48,1.57c1.24.29,2.72.55,3.65-.32a4,4,0,0,0,.9-2.64,47.32,47.32,0,0,1,3.83-14.45q-.47,12.31-.47,24.64c-9.4-5.8-20.73-7.37-31.69-8.81a25.12,25.12,0,0,0-7.83-.2Z" transform="translate(-72.38 -28.58)"/><path class="cls-36" d="M175.4,117.38c.41,8.27,2.84,16.83,8.77,22.6a24.15,24.15,0,0,0-9.49-2.81,39.56,39.56,0,0,1-.13-13.77,56,56,0,0,0,1.21-8Z" transform="translate(-72.38 -28.58)"/><path class="cls-36" d="M114.07,108a5.63,5.63,0,0,1,2.22,3.16,69.79,69.79,0,0,1,4.12,16.15,125.07,125.07,0,0,0,.41-15.24,8.23,8.23,0,0,0-.79-3.84,3,3,0,0,0-3.3-1.54c-.88.3-1.49,1.14-2.37,1.43Z" transform="translate(-72.38 -28.58)"/><path class="cls-37" d="M113.79,99c-8.11,2.77-16.65,5.82-22.45,12.49a23.3,23.3,0,0,0-5.08,9.67c-.61,2.48-1.14,4.48-2.9,6.46-1.26,1.43-2.78,2.69-3.55,4.48a6.4,6.4,0,0,0-.5,3.35s.53,1.53.52,1.6c-.13.66-.78.94-1.26,1.42a10.32,10.32,0,0,0-3,7.68c.05,1.19,1,2.76.94,3.78s-2.1,3-2.61,4.13a11.66,11.66,0,0,0-.38,8.61,7.13,7.13,0,0,1,.33,4.56c-.25.88-.75,1.7-1,2.6a16.1,16.1,0,0,0-.34,6.26,27.82,27.82,0,0,0,5,12.17c.35.5,1.16,0,.82-.48a30.48,30.48,0,0,1-4.46-9.6,18.1,18.1,0,0,1-.51-5.63c.19-2.36,1.26-3.83,1.91-6,.71-2.35-1.18-4.26-1.41-6.63a10.84,10.84,0,0,1,3.73-9.26.48.48,0,0,0,.07-.56,9.22,9.22,0,0,1,3.18-12.26.45.45,0,0,0,.16-.62c-3.35-4.92,3.5-8.23,5.09-12.25,1.4-3.57,1.72-7.19,3.92-10.5,5.44-8.19,15-11.83,23.82-15.24.15,0,.09-.29-.07-.24Z" transform="translate(-72.38 -28.58)"/><path class="cls-37" d="M100.85,117a49.22,49.22,0,0,1,17.43-9.9c.41-.14.24-.78-.18-.66a42,42,0,0,0-17.41,10.4c-.11.1,0,.26.16.16Z" transform="translate(-72.38 -28.58)"/><path class="cls-36" d="M192.1,145.38c8.06-5.6,9.82-15.57,8.35-24.75-.09-.55-.92-.31-.84.23,1.41,8.76-.23,18.41-8,23.77-.46.31,0,1.07.44.75Z" transform="translate(-72.38 -28.58)"/><path class="cls-36" d="M191.13,101.34a22,22,0,0,0-6.41-4.22c-.51-.21-.95.53-.44.75a21.5,21.5,0,0,1,6.24,4.08c.41.38,1-.23.61-.61Z" transform="translate(-72.38 -28.58)"/><path class="cls-38" d="M175.09,144.37c-1.35-16.91,2.1-33.64,6.15-50a.87.87,0,0,0-1.68-.46c-4.08,16.48-7.57,33.38-6.2,50.44.09,1.11,1.82,1.12,1.73,0Z" transform="translate(-72.38 -28.58)"/><path class="cls-38" d="M159.43,75.8c8.14,1.37,16.14,1.56,24.17-.51a92.76,92.76,0,0,0,11.71-4c3.59-1.45,7.86-2.74,10.95-5.08a.55.55,0,0,0-.42-1c-3.37.65-6.59,2.64-9.74,4a98.62,98.62,0,0,1-11.91,4.36c-8.26,2.36-16.23,2.18-24.73,2-.13,0-.17.22,0,.24Z" transform="translate(-72.38 -28.58)"/><path class="cls-38" d="M168.22,107.07c1.57-1,2.73-2.61,4-3.94,1.46-1.53,3-3,4.56-4.41a85.46,85.46,0,0,1,9.66-7.5,130.8,130.8,0,0,1,21.63-11.14c.5-.21.14-1-.37-.87a78.33,78.33,0,0,0-22.86,11,82.1,82.1,0,0,0-9.14,7.4c-2.67,2.5-6.54,5.64-8,9.07-.1.26.25.5.47.36Z" transform="translate(-72.38 -28.58)"/><path class="cls-38" d="M211.6,65.38c2.05,2.81,1.68,8.14.29,11.22-1.6,3.57-4.33,3.46-5.93.21a11.6,11.6,0,0,1-1.26-6.58A8.33,8.33,0,0,1,206.21,67c1.58-2.18,3.16-2.71,5.49-1.3.48.29,1.15-.31.8-.8-2.82-3.9-7-.15-8.49,3s-.68,7.38,1.11,10.36,4.58,3.58,6.85.8c1.68-2,1.91-4.73,2.06-7.27s0-5-1.71-6.87C212,64.44,211.29,65,211.6,65.38Z" transform="translate(-72.38 -28.58)"/><path class="cls-38" d="M210.77,67.42c1.45,1.94,1.19,5.66.24,7.8-1.14,2.54-3.15,2.49-4.3.17a8,8,0,0,1-.88-4.63,5.66,5.66,0,0,1,1-2.28c1.09-1.52,2.32-2,3.94-.92.29.2.55-.22.35-.46-2.08-2.57-4.86.33-5.73,2.46s-.18,4.9,1,6.77,3.16,2.12,4.57.21c1.68-2.27,2-7.19.12-9.39C211,67,210.61,67.21,210.77,67.42Z" transform="translate(-72.38 -28.58)"/><path class="cls-36" d="M202.67,115.14c-.33,3.3-2,5.32-5.36,5.68-4,.43-7.11-2-8.51-5.66a12.92,12.92,0,0,1-.28-8.61,7.85,7.85,0,0,1,2-3.52c2.38-2,5.86-.71,7.44,1.53a.18.18,0,0,0,.31-.19c-1.77-3-6.17-4-8.62-1.22-2.66,3.07-2.82,8.15-1.54,11.81,1.4,4,4.8,6.91,9.21,6.39,3.65-.43,5.34-2.71,5.63-6.21,0-.2-.29-.19-.31,0Z" transform="translate(-72.38 -28.58)"/><path class="cls-36" d="M198.43,104.62c6,1.37,13.67.57,18.75-3.13.24-.17.11-.66-.22-.52-2.85,1.13-5.51,2.46-8.56,3a34.71,34.71,0,0,1-9.92.25c-.21,0-.25.32,0,.36Z" transform="translate(-72.38 -28.58)"/><path class="cls-36" d="M219.9,111a31,31,0,0,0-9,.69c-2.81.67-5.15,2-7.78,3.08-3.08,1.26-7.4,1.42-9.2-2s.26-7,3.23-8.65a.22.22,0,0,0-.17-.39c-5.35,1.55-6.15,9.64-1,12,2.6,1.22,5.71.57,8.2-.59a34.92,34.92,0,0,1,15.71-3.72.24.24,0,0,0,0-.48Z" transform="translate(-72.38 -28.58)"/><path class="cls-36" d="M216.6,101.51c-.95,2.49-2.09,5.91,0,8.17,1.33,1.44,3.8,2.1,5.21.41a7.63,7.63,0,0,0,.62-7.57c-1-1.76-3.51-2.89-5.24-1.55-.24.19,0,.62.3.51a3.42,3.42,0,0,1,4.68,2.34c.5,1.71.22,5.26-1.46,6.24s-3.79-.43-4.35-2.11c-.7-2.08.07-4.31.72-6.3.1-.32-.37-.43-.48-.14Z" transform="translate(-72.38 -28.58)"/><path class="cls-36" d="M217.77,103.54c-.55,1.33-1.13,3.14,0,4.35a2,2,0,0,0,2.92.22A4.1,4.1,0,0,0,221,104c-.52-.93-2.08-1.72-3-.82a.31.31,0,0,0,.3.51,1.64,1.64,0,0,1,2.2,1.11c.24.8.13,2.57-.66,3s-1.76-.24-2-1a5.27,5.27,0,0,1,.34-3.15c.09-.32-.37-.42-.48-.13Z" transform="translate(-72.38 -28.58)"/><path class="cls-36" d="M200.8,132.19a22.52,22.52,0,0,0,3.7-3.33,7.59,7.59,0,0,1,7-2.3c4.09.59,7.36,2.91,11,4.54a.23.23,0,0,0,.24-.4,25.59,25.59,0,0,0-11.61-4.89,8.34,8.34,0,0,0-5,.82c-2.24,1.24-3.53,3.65-5.69,5-.33.21,0,.73.3.52Z" transform="translate(-72.38 -28.58)"/><path class="cls-36" d="M203,115.71c3.94.63,7.83,1.36,11.72,2.21,3.61.8,7.54,2,11.26,1.86.28,0,.37-.45.07-.52-4-.88-8.08-1.39-12.09-2.24-3.57-.76-7.24-1.66-10.92-1.59-.15,0-.2.25,0,.28Z" transform="translate(-72.38 -28.58)"/><path class="cls-36" d="M222.45,130.53c-.88-2.84-1.19-7.27,1.1-9.57,1.56-1.58,3.9-.45,4.51,1.52a11.35,11.35,0,0,1,.21,3.68c-.07,1.64-.21,3.55-1.47,4.77a2.81,2.81,0,0,1-4.44-.4.09.09,0,0,0-.16.09c1.1,2.49,3.91,2.41,5.51.36,1.34-1.71,1.3-4.2,1.26-6.26,0-1.67-.24-3.48-1.64-4.6-2.16-1.73-4.46.06-5.35,2.21a10.53,10.53,0,0,0,.15,8.33A.18.18,0,0,0,222.45,130.53Z" transform="translate(-72.38 -28.58)"/><path class="cls-36" d="M223.35,129.06c-.5-1.93-.8-4.88.76-6.43,1-1,2.49-.32,2.9,1a7.92,7.92,0,0,1,.14,2.48,4.47,4.47,0,0,1-1,3.16,1.87,1.87,0,0,1-2.91-.21c-.06-.07-.22,0-.17.08.7,1.8,2.71,1.79,3.85.34a6.12,6.12,0,0,0,.9-3.89c0-1.22,0-2.65-1-3.54-1.46-1.35-3.21-.27-3.91,1.28a7,7,0,0,0,.09,5.87A.18.18,0,0,0,223.35,129.06Z" transform="translate(-72.38 -28.58)"/><path class="cls-39" d="M91.63,111.24C106.72,93,105.08,63.56,96.07,43c-.16-.35-.72-.1-.62.27,1.66,6.08,3.76,12,5,18.18a74.44,74.44,0,0,1,1.41,18.78,62.38,62.38,0,0,1-10.38,30.89c-.07.1.09.23.18.13Z" transform="translate(-72.38 -28.58)"/><path class="cls-39" d="M118.09,28.77c6.61,5.06,7.63,14,9.39,21.51.4,1.71,3.37,14.6,7,11.33.18-.17,0-.54-.26-.44-4.21,1.74-7.45-17.48-8.19-20-1.41-4.79-3.54-9.69-7.88-12.5-.06,0-.11,0,0,.1Z" transform="translate(-72.38 -28.58)"/><path class="cls-39" d="M118.85,36.13c-3.7,4.42-10.46,8.14-16.22,8.49-3.55.22-8.64-1.31-7-5.86.8-2.29,3-4,5-5.22a31,31,0,0,1,11.31-3.95,12.93,12.93,0,0,1,6,.14c3.22,1.14,2.16,4.11.84,6.41-.14.25.23.57.43.32,3-3.75,1.67-7.42-3.11-7.82-5.79-.47-12.78,1.87-17.37,5.31-3.72,2.8-6.57,8.61-.64,10.73,7,2.52,16.8-2.78,21.07-8.26C119.3,36.22,119,35.93,118.85,36.13Z" transform="translate(-72.38 -28.58)"/><path class="cls-39" d="M115.65,36.33a19.46,19.46,0,0,1-10.17,5.87c-1.32.24-3.25.47-4.43-.23s-2.51-2.86-1.63-4.38a9.38,9.38,0,0,1,3.42-3.11c2.88-1.73,16.84-6,12.73,1.86a.27.27,0,0,0,.46.27c2.24-3,1-5.53-2.6-5.73a20,20,0,0,0-12.24,3.84c-2.46,1.86-4.73,5.74-1,7.62,5.09,2.59,12.64-1.81,15.78-5.73C116.1,36.41,115.83,36.13,115.65,36.33Z" transform="translate(-72.38 -28.58)"/><path class="cls-31" d="M159.41,288.16c-.8-7-1.77-14-2.37-21s-.32-14.19-1.23-21.12a.32.32,0,0,0-.63,0c-.63,7,.45,14.64,1.11,21.67a196.2,196.2,0,0,0,2.78,20.49c0,.18.36.14.34,0Z" transform="translate(-72.38 -28.58)"/><path class="cls-31" d="M136.51,287.8a6.46,6.46,0,0,1-3.6-1.64c-1.07-.56-1.17-1.52-.27-2.88a13.5,13.5,0,0,1,1.56-.15,26.63,26.63,0,0,1,4,.15,46.54,46.54,0,0,1,10.43,2.31,33.29,33.29,0,0,1,4.53,1.89,19.39,19.39,0,0,1,1.87,1.09,10.29,10.29,0,0,1,1,.75c0-.3-.14-.32-.47-.06-1.94,1.45-6.06.6-8.17.47-.42,0-.52.67-.1.74a16.93,16.93,0,0,0,6.18.3c1-.18,3-.37,3.68-1.21a.48.48,0,0,0-.07-.58c-5-4.48-13.13-6.16-19.58-6.64-1.6-.12-6.31-.75-6.89,1.56-.61,2.48,4.1,4.2,5.85,4.38.27,0,.34-.42.07-.48Z" transform="translate(-72.38 -28.58)"/><path class="cls-29" d="M107.45,260.72c1.56-5.41,1-11.26,0-16.73-1.12-6.39-3-13.24-6.34-18.84-.19-.32-.78-.11-.63.26,4.64,11.08,8.78,23,6.65,35.24a.14.14,0,0,0,.27.07Z" transform="translate(-72.38 -28.58)"/><path class="cls-29" d="M130.43,268.61c-4.12.58-8.31-.4-12.42-.8a32.56,32.56,0,0,1-5.8-1.07c-1.77-.51-7.57-2.87-4.27-5.35.41-.31.2-1.1-.38-.9l-.37.13c-.49.17-.46,1,.13,1a84.09,84.09,0,0,1,23.92.49c.59.09.86-.78.25-.92a69.85,69.85,0,0,0-24.3-.54c.08.32.17.63.26.95l.37-.13-.37-.9a3.33,3.33,0,0,0-1.11,3.6c.52,1.85,2.55,2.49,4.19,3.05a38.21,38.21,0,0,0,9.48,1.63c3.56.29,7,1,10.56.28.32-.07.18-.54-.14-.49Z" transform="translate(-72.38 -28.58)"/><path class="cls-29" d="M130.5,267a94.93,94.93,0,0,1-10.22-1.08,49.51,49.51,0,0,1-6.06-.92c-.53-.12-2.55-.44-2.76-.95-.59-1.51,6.66-1.12,7.29-1.08,4.27.23,8.47.9,12.7,1.43.52.07.64-.82.12-.93A80.57,80.57,0,0,0,114,261.87c-1.34,0-5.35.64-3.36,2.76,1.47,1.58,5.15,1.67,7.11,1.92,4.19.53,8.57,1.23,12.77,1a.26.26,0,0,0,0-.51Z" transform="translate(-72.38 -28.58)"/><path class="cls-31" d="M143.2,280.2c2.8.64,19.48,5.74,13.71,9.89-2.85,2-8.1.58-11.15,0-1.78-.32-3.54-.68-5.3-1.13a52.94,52.94,0,0,1-6-1.85c-1.66-.64-4.86-1.7-5.71-3.48-2.73-5.71,12.2-3.62,14.55-3.39.42,0,.48-.61.09-.72-3.9-1.11-12.23-2.72-15.29,1.07-2.59,3.19,1.79,5.73,4.26,6.83,4,1.81,28.47,9.15,26.7.07-.51-2.61-3.68-3.95-5.83-4.87a46.42,46.42,0,0,0-9.85-3C143,279.55,142.81,280.11,143.2,280.2Z" transform="translate(-72.38 -28.58)"/><path class="cls-38" d="M110.72,149.76c6.09-6.94,10.6-18,10.55-27.3a.15.15,0,0,0-.3,0c-.93,4.72-1.59,9.29-3.3,13.84-1.82,4.84-4.46,9-7.21,13.3a.16.16,0,0,0,.26.2Z" transform="translate(-72.38 -28.58)"/><path class="cls-38" d="M143.71,110.92a103.75,103.75,0,0,1-17.12,24.34c-.75.82.47,2.05,1.23,1.23a105.81,105.81,0,0,0,17.39-24.69c.49-1-1-1.88-1.5-.88Z" transform="translate(-72.38 -28.58)"/><path class="cls-38" d="M138.74,105.63c-5,3.85-12.8,9.21-18.73,4.38a.18.18,0,0,0-.26.26c5,6.31,14.81-.83,19.07-4.54.05,0,0-.14-.08-.1Z" transform="translate(-72.38 -28.58)"/><path class="cls-38" d="M188.76,73a29.49,29.49,0,0,0-18.21-19.31c-.53-.2-.75.64-.23.84a28.6,28.6,0,0,1,17.61,18.7.43.43,0,0,0,.83-.23Z" transform="translate(-72.38 -28.58)"/><path class="cls-38" d="M139.8,56.91a53.18,53.18,0,0,0-19.32,17.31c-4.46,6.87-8.92,15.36-7.94,23.83a14.3,14.3,0,0,0,1.16,4.35c.86,1.86,2.34,2.93,3.56,4.51,2.75,3.54,2.59,8.14,2.76,12.39.15,3.39.21,7,3.24,9.22,2.79,2,6.67.91,9.32-.86,4-2.7,6.62-7.85,9.44-11.66,1.72-2.34,3.67-4.48,5.44-6.78s2.81-4.93,4.29-7.33c.59-1-.91-1.83-1.5-.88-1.32,2.15-2.32,4.54-3.78,6.6-1.62,2.32-3.63,4.39-5.32,6.66-3,4-6,10.24-10.57,12.56-3.36,1.71-7.43,1.28-8.39-3a38,38,0,0,1-.51-7c-.15-3.54-.47-7.21-2.48-10.26-1.32-2-3.33-3.28-4.22-5.62a15.17,15.17,0,0,1-.8-6.2c.32-5.33,2.45-10.55,5-15.16A53.85,53.85,0,0,1,140.67,58.4c1-.53.11-2-.87-1.49Z" transform="translate(-72.38 -28.58)"/><path class="cls-38" d="M153.37,35.35c-.51,3.36.86,7,2.11,10.1a66.89,66.89,0,0,0,5.27,10.15.32.32,0,0,0,.56-.32c-1.69-3.2-3.57-6.26-5-9.59s-1.91-6.8-2.79-10.34c0-.08-.15-.08-.16,0Z" transform="translate(-72.38 -28.58)"/><path class="cls-38" d="M151.7,37.49a2.8,2.8,0,0,0,1.38-2.25.27.27,0,0,0-.14-.24c-1.81-1.08-4.25-.79-6.31-.69-1.35.07-3.63.2-4.19,1.74s1.14,2.31,2.37,2.59a9.13,9.13,0,0,0,7-.92c.35-.24,0-.82-.33-.57a8.14,8.14,0,0,1-5.54,1,4.85,4.85,0,0,1-2.4-.65c-1.57-1.41.33-2.13,1.15-2.35a14.6,14.6,0,0,1,3.62-.28l1.55,0a7.44,7.44,0,0,1,1.76.15c.77.9.76,1.69,0,2.38C151.58,37.44,151.64,37.53,151.7,37.49Z" transform="translate(-72.38 -28.58)"/><path class="cls-38" d="M158.09,50.63c2.12-2.9,4.27-6.42,4.37-10.13a.15.15,0,0,0-.3,0c-1.22,3.52-2,7-4.15,10.12,0,.05.05.1.08.05Z" transform="translate(-72.38 -28.58)"/><path class="cls-38" d="M171,43.88c1.73-.79.94-2.08-.29-3a9.35,9.35,0,0,0-6.6-1.72c-1.54.23-3.07,1.37-1.55,2.76,2.26,2.07,5.5,3.18,8.43,2.09.38-.15.22-.77-.17-.62a6.61,6.61,0,0,1-5.43-.39,5.86,5.86,0,0,1-2-1.26c-1.23-1.92.56-2,1.55-2a9,9,0,0,1,3.93.77c.9.4,3.81,1.85,1.94,3C170.58,43.67,170.77,44,171,43.88Z" transform="translate(-72.38 -28.58)"/><path class="cls-38" d="M171.61,43.38a21.62,21.62,0,0,0-1.5,10.06c0,.4.66.41.63,0a23.45,23.45,0,0,1,1.35-9.93c.11-.3-.36-.42-.48-.13Z" transform="translate(-72.38 -28.58)"/><path class="cls-38" d="M175.79,56.67a11.34,11.34,0,0,0,8.31-8.49c.05-.25-.3-.44-.43-.18-1.78,3.63-3.78,7.17-7.93,8.48a.1.1,0,0,0,0,.19Z" transform="translate(-72.38 -28.58)"/><path class="cls-38" d="M184.1,49c1.23,1.66,3.11,3.79,5.07,4.61,1.18.48,2.29-.15,2.15-1.47-.26-2.65-5.33-6.65-7.64-4.17a.24.24,0,0,0,.29.38c2.31-1.12,5.26.73,6.4,2.85a2.66,2.66,0,0,1,.31.81l0,.48-1.63.4c-.57-.13-1.27-.9-1.71-1.27a28.55,28.55,0,0,1-2.89-2.93c-.19-.22-.58.08-.4.31Z" transform="translate(-72.38 -28.58)"/><path class="cls-38" d="M191.66,52.79a8.71,8.71,0,0,0-5.2,3.55,11.88,11.88,0,0,0-2.1,7.12.37.37,0,0,0,.74,0c0-4.22,2.31-9.13,6.58-10.62a0,0,0,1,0,0-.05Z" transform="translate(-72.38 -28.58)"/><path class="cls-37" d="M88.85,154.72c-6.65,2.35-13.28,8.77-15.67,15.44-.06.17.2.27.29.12a42.94,42.94,0,0,1,6.38-9,40.22,40.22,0,0,1,9.07-6.35.09.09,0,0,0-.07-.17Z" transform="translate(-72.38 -28.58)"/><path class="cls-37" d="M85.58,143.69A15.76,15.76,0,0,0,76.67,151c-.14.24.22.45.38.22a18.62,18.62,0,0,1,8.6-7.23c.14-.06.09-.3-.07-.25Z" transform="translate(-72.38 -28.58)"/><path class="cls-37" d="M104.15,122.24c-8.15,4.82-16.3,10-24,15.42-.23.17,0,.56.24.4,8.14-4.85,16.14-10.23,23.86-15.72a.06.06,0,1,0-.06-.1Z" transform="translate(-72.38 -28.58)"/><path class="cls-12" d="M121.45,142.18c.5-4.42,4.74-5.5,8.55-5.7a93.8,93.8,0,0,1,13.3.61,128.62,128.62,0,0,1,17.19,3.26c5.24,1.22,10.58,2.43,14.82,5.94.85.71,2.09-.51,1.23-1.22-4.65-3.86-10.37-5.18-16.12-6.52a124,124,0,0,0-20.52-3.45c-6.64-.41-19.11-2.36-20.19,7.08-.12,1.11,1.61,1.1,1.74,0Z" transform="translate(-72.38 -28.58)"/><path class="cls-40" d="M212.15,153.44c-3.91-4.91-10.58-7.31-16.63-7.93-2.41-.24-4.52-.47-6.58-1.81-1.46-.94-2.71-2.17-4.14-3.15a16.64,16.64,0,0,0-9.72-2.87.57.57,0,0,0,0,1.14,18.08,18.08,0,0,1,11.4,4.22,13.69,13.69,0,0,0,6.15,3.06c3.26.54,6.46.49,9.64,1.58,3.79,1.3,6.61,3.49,9.73,5.92a.11.11,0,0,0,.15-.16Z" transform="translate(-72.38 -28.58)"/><path class="cls-12" d="M78.21,187.78c0-.38-.55-.37-.58,0l-.09,1a.12.12,0,0,0,.07.13l0,.54a8.27,8.27,0,0,0,.15,1.64,19,19,0,0,0,.63,2.88,19.78,19.78,0,0,0,2.68,5.62q.39.56.81,1.08a.24.24,0,0,1-.08-.06c-.08-.05-.17.07-.1.13,3.92,3.26,5.16,9.42,7.15,14,0,.05.09,0,.07,0-1.13-3.09-2.32-6.18-3.61-9.2A16.79,16.79,0,0,0,84.08,203a18.7,18.7,0,0,0,6,3.73c.07,0,.12-.09,0-.12A20.35,20.35,0,0,1,78.21,187.78Z" transform="translate(-72.38 -28.58)"/><path class="cls-12" d="M180.32,194.83c-2-6.7-10.81-7.77-16.61-8.74-3.91-.65-7.84-1.14-11.7-2.05a40.87,40.87,0,0,1-7.12-2.42,45.28,45.28,0,0,0-7.67-3.89c-1.33-.55-2.65-1.11-4-1.71a15.35,15.35,0,0,0,6,.26c8.8-1.32,18.54-3.85,26.15,2.42.09.08.23,0,.13-.13a19.28,19.28,0,0,0-8.44-4.26c3.3-1.21,6.58-2.59,9.82-3.92.07,0,0-.16,0-.13-3.42,1.17-6.9,2.45-10.19,4a32.47,32.47,0,0,0-11-.25c-4.1.53-8.39,2-12.49.82-3.57-1-6.22-3.55-9.13-5.69a24.23,24.23,0,0,1-3-5.19c.51.24,1,.46,1.56.67a87,87,0,0,0,9.93,2.66,84.71,84.71,0,0,1,9.53,3.34c.27.1.47-.29.28-.48a17.06,17.06,0,0,0-5.09-3.19c3.94-.6,8.3-2.38,12.28-1.85a0,0,0,0,0,0-.09,12,12,0,0,0-5.13.28c-2.42.47-4.87.88-7.27,1.47a.09.09,0,0,0-.06.11c-3.36-1.42-7.13-2.27-10.3-3.47a31.14,31.14,0,0,1-15.25-12c-.88-1.32-3.18-.54-2.67,1.12a3.78,3.78,0,0,0,.75,1.53,1.55,1.55,0,0,0,.26.25q.45.71,1,1.38c-1.62,1.53-2.67,3.81-3.8,5.69-.68,1.14-1.34,2.29-2,3.46-10.48,3-19.82,11-25,20.37,0,.06.07.12.11.06,6-9.56,14.31-15.81,24.56-19.7-.51,1-1,2-1.44,3s-.87,2-1.29,3.1c-2.57,3.37-5.86,5.6-9.07,8.49-2.75,2.46-5.2,5.59-5.24,9.43a0,0,0,0,0,0,0c.92-8,9-10.44,13.45-15.76a29.75,29.75,0,0,0-1.85,8.47.07.07,0,0,0,.13,0,75.74,75.74,0,0,1,6.24-14.09q1.84-3.06,3.77-6.06a40.85,40.85,0,0,0,2.95-4.6,26.71,26.71,0,0,0,7.41,5.79,18,18,0,0,0,2.38,6.45c1,3.09,3.08,5.78,4,9,1.2,4.21.12,7.89-1.67,11.72-2.63,5.61-4.45,11-3.85,17.31a.05.05,0,1,0,.1,0,43.54,43.54,0,0,1,2.34-11.63c1.21-3.28,3.17-6.25,4.17-9.6a20.3,20.3,0,0,0-.49-11.53,24.74,24.74,0,0,0,3.73,2.54c3.44,1.9,7.19,3.15,10.6,5.11a21.6,21.6,0,0,1,4.49,3.29,9.12,9.12,0,0,1,.72.8,47.21,47.21,0,0,0-16.39,18.72,47.87,47.87,0,0,0-4,11.73c-.5,2.46-.44,5.33-1.84,7.49-1.91,2.93-5.15,3.62-8.38,3.18-.11,0-.15.12,0,.16a7.77,7.77,0,0,0,8.42-2.47c1.38-1.68,1.85-3.89,2.25-6a54.38,54.38,0,0,1,1.9-7.22,48.52,48.52,0,0,1,10.94-17.71c-1.15,3.75-.67,8.48.18,11.73,2,7.4,9.38,12.65,9,20.68,0,.11.17.14.18,0,.94-5.91-3.43-10.3-6.05-15a21.47,21.47,0,0,1-.4-20.21,59.36,59.36,0,0,1,5.08-4.09l.24.31v0a.37.37,0,0,0,.25.32c1.86,4.1,4,8.06,5.45,12.39a83.5,83.5,0,0,1,3.82,18.49c.16,1.77.19,3.85.25,6-1,6.05-2.16,12.49-9.15,13.47-.08,0-.05.14,0,.15,5.48.42,8-4.77,9.28-10.19.45,6.84,2,13.75,9.49,15.12a.27.27,0,0,0,.21-.5c-5.4-3.42-8.42-7.29-8.18-14a116.75,116.75,0,0,0-.11-13.75,33.43,33.43,0,0,0,3.16,5.75c1.68,2.42,3.9,4.87,6.85,5.66,1.93.52,4.4.33,5.17-1.77,0,0,0-.07-.07,0-3,5.06-9.44-.72-11.47-3.64a33.41,33.41,0,0,1-3.76-7.24c-.06-.54-.12-1.08-.19-1.62a76.28,76.28,0,0,0-3.6-15,75.4,75.4,0,0,0-3.37-8.5c1.78.75,3.69,1.66,4.1,1.88a39.52,39.52,0,0,1,7.27,5.18c3.51,3.16,5.84,7.83,9.94,10.25.09.06.16-.08.08-.14-3-2.09-4.65-5.33-6.95-8.05a37.41,37.41,0,0,0-7.12-6.47,49.36,49.36,0,0,0-8.16-4.25c-.26-.47-.54-.94-.83-1.39l-.1-.17a80.9,80.9,0,0,0,8.45,1.47c7.74,1.05,16.6.52,21.47,7.66C179.8,195.54,180.47,195.32,180.32,194.83Z" transform="translate(-72.38 -28.58)"/><path class="cls-38" d="M182,101.37a15.37,15.37,0,0,0,4.2-11,.28.28,0,0,0-.56,0c0,4.17-1.48,7.48-3.81,10.84-.07.1.08.22.17.13Z" transform="translate(-72.38 -28.58)"/><path class="cls-40" d="M132.79,141.84a20.58,20.58,0,0,0-6.46-.29,22.16,22.16,0,0,0-6.49.95c-.55.2-.52,1.13.15,1.09,2.3-.13,4.53-.81,6.83-1,2-.19,4-.07,6-.38.18,0,.16-.31,0-.35Z" transform="translate(-72.38 -28.58)"/><path class="cls-38" d="M162,55.78c-2-.1-3.57,1.08-5.29,2.06A35.77,35.77,0,0,1,150.15,61c-4.09,1.32-9.59,1.34-8.84-4.24.37-2.68,1.55-5.18,2.08-7.83a20.31,20.31,0,0,0-1-11.62c-.08-.18-.33,0-.3.12.95,5.25,1.3,9.64-.24,14.77-.68,2.27-1.89,5.36-.94,7.72s3.57,2.51,5.7,2.33a18.13,18.13,0,0,0,6.23-1.87c2.81-1.36,6-4.25,9.14-4.48a.07.07,0,0,0,0-.14Z" transform="translate(-72.38 -28.58)"/><path class="cls-38" d="M160.28,55.47c2.39.42,4.61,1.13,7.06.53,1.49-.36,3.39-1.23,3.75-2.85a.4.4,0,0,0-.59-.45c-1.43.83-2.37,1.93-4.1,2.28a20.79,20.79,0,0,1-6.05,0c-.28,0-.35.45-.07.5Z" transform="translate(-72.38 -28.58)"/><path class="cls-38" d="M172.51,75.13c-2.69-3.48-8.21-4.82-12.41-4.41A15.93,15.93,0,0,0,149,77.2c-2.91,4-3.59,9-3,13.75.44,3.59,1.88,8.23,5.52,9.76.58.24.93-.6.57-1-2.8-3.06-4.39-5.73-4.73-10s.29-8.34,2.76-11.77A14.68,14.68,0,0,1,161,71.86c4.43-.29,7.56,1.57,11.21,3.68.28.16.49-.19.32-.41Z" transform="translate(-72.38 -28.58)"/><path class="cls-38" d="M159.52,75.51c-4.4-.51-8.13,5.29-9.39,8.78A21.19,21.19,0,0,0,151.59,101c.31.59,1.37.17,1.1-.47-2-4.77-3.22-9.68-1.77-14.8A15.33,15.33,0,0,1,154,79.81c1.65-1.88,3.75-2.38,5.62-3.81a.26.26,0,0,0-.13-.49Z" transform="translate(-72.38 -28.58)"/><path class="cls-12" d="M217,177.34a34.71,34.71,0,0,1-8.31-6.36,24,24,0,0,0-5.26-5.42,36.86,36.86,0,0,0-2.44-6.09c-1.5-2.95-3.53-6.73-6.43-8.52-.94-.58-1.87.54-1.42,1.43,1.63,3.27,4.32,5.93,5.93,9.29.42.88.8,1.77,1.15,2.68a39.56,39.56,0,0,1-3,4.73c-1.16,1.39-2.44,2.69-3.58,4.09a35.61,35.61,0,0,0-5.54,9.81.08.08,0,0,0,.14.06c1.14-1.83,2.22-3.56,3.38-5.24a9.22,9.22,0,0,0-.2,1.59A45.46,45.46,0,0,0,192,185a25.38,25.38,0,0,1-.61,7.06s0,0,0,0a18.53,18.53,0,0,0,.73-7.62c-.28-2.81-.78-5.56.43-7.95a40.31,40.31,0,0,1,3.9-4.6c1.56-1.59,3.6-3.56,4.38-5.82a41.14,41.14,0,0,1,1.81,7.73c.18,1.35.37,2.73.58,4.11,0,.15,0,.31,0,.47-.2,2.23-.7,4.57-1.05,6.82-.08.52-.17,1-.26,1.56a48.8,48.8,0,0,1-3.86,10c-.06.12-.13.24-.19.37a.16.16,0,0,0-.14.08,13.46,13.46,0,0,1-5.25,5.12c-2.73,1.39-5.53,1.17-8.47,1.39-.06,0-.06.09,0,.09,4.71.13,9.61-.5,12.58-4.11a38.56,38.56,0,0,1-5.18,8.18c-4.82,5.41-14.28,5.71-17.25,12.89,0,.08.1.12.14.05,2.59-4.33,7-6.21,11.35-8.35-3.43,2.2-2.18,8.26-2.46,11.63,0,.06.1.08.11,0,.62-4.1-1.29-10.12,3.74-12.08a.08.08,0,0,0,0-.15l-.52.17c2.93-1.49,5.73-3.2,7.74-6a69.75,69.75,0,0,0,6.46-11.82c-.05.3-.1.6-.14.89a95.92,95.92,0,0,0-.33,19.9v0a26.63,26.63,0,0,1-2.46,7.84c-2.23,4.55-5.4,8.54-8.44,12.57-3.5,4.66-11.35,13.85-5.14,19.49.07.07.21,0,.14-.11-3.36-4.51-1-9.28,1.85-13.31s5.89-7.49,8.64-11.38a47.08,47.08,0,0,0,5.79-10.5,146.52,146.52,0,0,1,.86,14.8,64.65,64.65,0,0,1-3.6,19.53c-.07.21.24.33.36.15a33.15,33.15,0,0,0,4-12.45c.31,2.45.71,4.88,1.22,7.26,0,.07.11,0,.1,0-.5-2.93-.86-5.83-1.11-8.72.11-.91.21-1.81.29-2.7a138.6,138.6,0,0,0,0-20.78c-.44-7.35-.74-14.68.33-22q.18-1.14.39-2.25A49,49,0,0,0,207.49,203l-.07-.06a.06.06,0,0,0-.09.09l.35.35,0,0a.05.05,0,0,0,0,0c4.37,4.36,8.63,8.32,10.26,14.56,0,0,.08,0,.07,0-1-6.05-5.75-11-10.32-14.77a49.25,49.25,0,0,1-3.26-9.44,30.87,30.87,0,0,1-.61-3.67c.34-1.64.68-3.28.94-4.93a22.72,22.72,0,0,0,4.71,8.71c.07.08.22,0,.18-.1-1.56-3.93-3.92-7.48-4.54-11.74a55.37,55.37,0,0,0-.25-8q-.06-.65-.15-1.29c-.06-.91-.15-1.83-.29-2.74s-.3-1.64-.49-2.45a32.24,32.24,0,0,1,3.44,3.18,32.61,32.61,0,0,1,5.21,7.92c.05.11.25,0,.2-.09a37.73,37.73,0,0,0-2.62-5.3,19.08,19.08,0,0,0,2.92,2.2c3.28,2,7.43,3.25,8.41,7.48a.07.07,0,0,0,.13,0C221.28,180.25,219.27,178.65,217,177.34Z" transform="translate(-72.38 -28.58)"/><path class="cls-12" d="M210.39,237.56c0-.05-.14,0-.12.05a19.15,19.15,0,0,1,1.07,3.12c.07.3.83,4.52-.26,4.37-.1,0-.19.13-.08.19,1,.57,1-1.32,1-1.83A12.7,12.7,0,0,0,210.39,237.56Z" transform="translate(-72.38 -28.58)"/><path class="cls-31" d="M128.27,281.14c2.21-7.2,3.16-15,3.82-22.51s1.24-15.47-.23-22.75c-.07-.34-.6-.25-.6.08,0,7.43.69,14.69.1,22.14-.62,7.76-2.37,15.27-3.41,22.95,0,.21.26.3.32.09Z" transform="translate(-72.38 -28.58)"/><path class="cls-40" d="M119.75,141.93c-9.6,8.44-20.65,15.2-29.5,24.5-7.46,7.84-14.11,18.16-13.54,29.43,1.23,24.23,28.69,33.68,48.16,39,12.86,3.51,25.11,7.34,36.36,14.7,9,5.85,18.54,12.65,29.77,12.09,9.74-.48,16.55-7.28,21-15.41,5.79-10.48,9.11-22.47,10.57-34.31a108.26,108.26,0,0,0-21.91-79.18c-.67-.87-2.18,0-1.5.88A106.62,106.62,0,0,1,221.68,199a102.93,102.93,0,0,1-6.94,37.25c-3.42,8.76-8.41,19-17.85,22.51-10.63,3.9-21.48-2.06-30.2-7.7-4.69-3-9.25-6.21-14.28-8.67a107.59,107.59,0,0,0-15.62-6c-11.13-3.41-22.68-5.67-33.3-10.59-10-4.65-19.94-12.09-23.66-23-4.37-12.76,2.47-25.34,11-34.56,9-9.64,20.31-16.53,30.14-25.18.84-.73-.39-2-1.23-1.22Z" transform="translate(-72.38 -28.58)"/><path class="cls-41" d="M102.69,208.54c-2.2-2.37-4.42-4.17-5.69-7.27-.8-2-.57-5.11-2.44-6.33a.69.69,0,0,0-.84.1c-1.77,2.21.78,5.79,2.11,7.7,1.66,2.38,3.93,5,6.7,6.06.16.06.25-.15.16-.26Z" transform="translate(-72.38 -28.58)"/><path class="cls-41" d="M105,212.44a1.48,1.48,0,0,0,1-.57c.28-.36-.1-.89-.51-.88a1.49,1.49,0,0,0-1.05.56c-.42.39,0,1,.52.89Z" transform="translate(-72.38 -28.58)"/><path class="cls-41" d="M140.18,267.27a29,29,0,0,0,.64-8c-.11-2.55.61-5-.72-7.28a.8.8,0,0,0-1.48.4c-.32,2.54,1,4.88,1.21,7.41s0,5,0,7.47a.2.2,0,0,0,.39,0Z" transform="translate(-72.38 -28.58)"/><path class="cls-41" d="M115.18,251.21c.22-1.91-.55-4-.76-5.94-.16-1.6,0-3.53-1-4.87a.66.66,0,0,0-1.2.15c-.7,1.66.15,4,.68,5.68s.85,3.73,2,5.08c.09.11.23,0,.24-.1Z" transform="translate(-72.38 -28.58)"/><path class="cls-41" d="M152.18,78.09a4.4,4.4,0,0,0,2.21-1.41c.38-.54-.24-1.17-.8-1a4.17,4.17,0,0,0-2,1.45c-.37.41,0,1.21.58,1Z" transform="translate(-72.38 -28.58)"/><path class="cls-41" d="M144.59,39.62a7.86,7.86,0,0,1,2.39.56c.68.24,1.16-.86.5-1.16a3.7,3.7,0,0,0-1.5-.35,2.9,2.9,0,0,0-.72,0,3.71,3.71,0,0,0-.76.29.32.32,0,0,0,.09.62Z" transform="translate(-72.38 -28.58)"/><path class="cls-41" d="M163.71,44.7a1.53,1.53,0,0,0,1.27.51c.47-.05,1-.33,1-.86a.34.34,0,0,0-.25-.32,1.07,1.07,0,0,0-.4-.05l.27.07c-.25-.15-.47-.07-.74-.08a1.15,1.15,0,0,1-.48-.13.55.55,0,0,0-.66.86Z" transform="translate(-72.38 -28.58)"/><path class="cls-41" d="M184.71,51.34l.39,0c.53.07.54-.89,0-.82l-.39,0a.37.37,0,0,0,0,.74Z" transform="translate(-72.38 -28.58)"/><path class="cls-41" d="M202.85,69.19a7.78,7.78,0,0,0,.64,8.18c.25.3.74,0,.64-.37a20.45,20.45,0,0,1-1.07-4c-.09-1.24.06-2.5.09-3.74a.16.16,0,0,0-.3-.08Z" transform="translate(-72.38 -28.58)"/><path class="cls-41" d="M183.93,78.63c3.21-.81,6.33-1.85,9.5-2.79,2.76-.82,6.1-1.37,8.46-3,.47-.33.39-1.33-.34-1.24-2.61.33-5.12,1.81-7.54,2.83-3.35,1.4-6.78,2.59-10.17,3.93a.16.16,0,0,0,.09.3Z" transform="translate(-72.38 -28.58)"/><path class="cls-41" d="M155.49,84.37a3.14,3.14,0,0,0,.58,2.84c.42.55,1.58,1.65,2.32,1.1a.35.35,0,0,0,.12-.46c-.17-.31-.45-.36-.75-.51a2.5,2.5,0,0,1-.85-.7,2.84,2.84,0,0,1-.54-2.15c0-.52-.73-.58-.88-.12Z" transform="translate(-72.38 -28.58)"/><path class="cls-41" d="M119.45,100a6.52,6.52,0,0,0,4.17,1.52,1,1,0,0,0,0-2c-.68,0-1.35.07-2,.08a18.68,18.68,0,0,0-2,0,.23.23,0,0,0-.16.39Z" transform="translate(-72.38 -28.58)"/><path class="cls-41" d="M124.54,111.6a8.66,8.66,0,0,0,2.09.25,1.66,1.66,0,0,0,1.59-.65.45.45,0,0,0,0-.45,1.64,1.64,0,0,0-1.59-.66,8.66,8.66,0,0,0-2.09.25.66.66,0,0,0,0,1.26Z" transform="translate(-72.38 -28.58)"/><path class="cls-41" d="M126.12,126.41a1.37,1.37,0,0,0,.56.29,2.18,2.18,0,0,0,.57,0c.43,0,1-.34,1-.86s-.53-.49-.9-.36a2.79,2.79,0,0,1-1,.29c-.36,0-.4.44-.17.62Z" transform="translate(-72.38 -28.58)"/><path class="cls-41" d="M140.54,127.72c-.06.63-.08,1.27-.13,1.89a3.53,3.53,0,0,0,.06,1.68.23.23,0,0,0,.43,0,3.53,3.53,0,0,0,.07-1.68c-.06-.63-.08-1.26-.13-1.89a.15.15,0,0,0-.3,0Z" transform="translate(-72.38 -28.58)"/><path class="cls-41" d="M141.86,133.36a.18.18,0,0,0,0-.36.18.18,0,0,0,0,.36Z" transform="translate(-72.38 -28.58)"/><path class="cls-41" d="M128.43,139.26c2.31.75,6.39.87,8.14-1.08a.71.71,0,0,0-.31-1.17,7.17,7.17,0,0,0-3.67.19c-1.39.25-2.79.35-4.16.71a.7.7,0,0,0,0,1.35Z" transform="translate(-72.38 -28.58)"/><path class="cls-41" d="M192.34,105.54a7.41,7.41,0,0,0,1.69-.72.93.93,0,0,0,.38-1.16.91.91,0,0,0-1.09-.54,7.13,7.13,0,0,0-1.62.9.85.85,0,0,0-.35,1,.83.83,0,0,0,1,.48Z" transform="translate(-72.38 -28.58)"/><path class="cls-41" d="M202.24,107.19a32.45,32.45,0,0,0,4.62-.36,16,16,0,0,0,4-.68.19.19,0,0,0,0-.36,16.37,16.37,0,0,0-4.06.32,35.18,35.18,0,0,0-4.57.78.15.15,0,0,0,0,.3Z" transform="translate(-72.38 -28.58)"/><path class="cls-41" d="M212.38,105.56l1.62-.46a2.45,2.45,0,0,0,1.23-.62.18.18,0,0,0-.12-.3,2.44,2.44,0,0,0-1.34.37c-.5.26-1,.5-1.5.75-.15.07-.05.3.11.26Z" transform="translate(-72.38 -28.58)"/><path class="cls-41" d="M207.6,116.43l0,.39c0,.09.14.09.15,0s0-.26,0-.39-.21-.14-.2,0Z" transform="translate(-72.38 -28.58)"/><path class="cls-41" d="M207.54,117.31a48.44,48.44,0,0,0,7.29,2.26c2.48.49,5,.56,7.47,1.23,1.23.34,1.4-1.81,0-1.57-4.49.8-10.37-.82-14.68-2.22-.19-.06-.27.23-.08.3Z" transform="translate(-72.38 -28.58)"/><path class="cls-41" d="M184.59,101c.32.15.64.4,1,.57a4.14,4.14,0,0,1,1.07.78c.51.49,1,1.39,1.75,1.51a.7.7,0,0,0,.87-.66c.05-.91-1.09-1.69-1.83-2-.39-.2-.82-.34-1.22-.5a5.06,5.06,0,0,0-.66-.21,4.38,4.38,0,0,0-.81,0c-.27,0-.41.43-.14.55Z" transform="translate(-72.38 -28.58)"/><path class="cls-41" d="M174,61.74a40.55,40.55,0,0,1,4.6,5.19,29.1,29.1,0,0,1,2.94,6.2c.53,1.48,2.86.88,2.38-.65-1.38-4.51-5.13-9.45-9.73-11.07-.19-.06-.31.2-.19.33Z" transform="translate(-72.38 -28.58)"/><path class="cls-41" d="M137.71,60.08c-3.35,1.08-6.09,4.09-8.36,6.67a77.29,77.29,0,0,0-7,9.54,71,71,0,0,0-6.4,11.25c-.89,2.17-2.6,5.94,0,7.48a1.38,1.38,0,0,0,1.86-.49l.15-.33a.91.91,0,0,0-.13-1c-1.59-2,2.34-7.9,3.34-9.63,1.62-2.81,3.29-5.61,5-8.34a69.23,69.23,0,0,1,5.71-7.9c2-2.3,4.45-4.19,6.28-6.59.24-.3-.15-.74-.49-.63Z" transform="translate(-72.38 -28.58)"/><path class="cls-41" d="M97.58,37.58c-.14.21-.38.36-.54.56a3.14,3.14,0,0,0-.42.79,4.24,4.24,0,0,0-.1,1.91.93.93,0,1,0,1.84-.25c-.09-.48-.07-1-.12-1.45a5.86,5.86,0,0,1-.19-1.36.26.26,0,0,0-.47-.2Z" transform="translate(-72.38 -28.58)"/><path class="cls-41" d="M99.67,46.45a6.2,6.2,0,0,0,3,.79,3.12,3.12,0,0,0,2.64-1,.55.55,0,0,0-.2-.75,4.11,4.11,0,0,0-2.62-.09,26.32,26.32,0,0,0-2.8.61.22.22,0,0,0,0,.4Z" transform="translate(-72.38 -28.58)"/><path class="cls-41" d="M105.18,52.16a13,13,0,0,0,.41,2.72.1.1,0,0,0,.2,0,13.46,13.46,0,0,0-.43-2.75c0-.12-.2-.07-.18,0Z" transform="translate(-72.38 -28.58)"/><path class="cls-41" d="M104.39,87.28a37.17,37.17,0,0,0,1.15-11.36c0-.58-.92-.78-1.06-.15a36.94,36.94,0,0,0-.61,11.44.27.27,0,0,0,.52.07Z" transform="translate(-72.38 -28.58)"/><path class="cls-41" d="M88,121.66c1-1.61,1.35-3.41,2.45-5a31.58,31.58,0,0,1,3.88-4.44c3-2.87,6.71-4.83,10.34-6.83,1.28-.7.15-2.61-1.14-2a39.66,39.66,0,0,0-11.32,8c-2.24,2.42-4.92,6.65-4.55,10.09a.18.18,0,0,0,.34.09Z" transform="translate(-72.38 -28.58)"/><path class="cls-41" d="M87.14,134.29c2.51-1.14,4.73-3,7.08-4.48s5-2.61,7.21-4.27c.29-.22.14-.77-.26-.63A35.42,35.42,0,0,0,93.72,129c-2.35,1.47-5,2.93-6.83,5a.21.21,0,0,0,.25.32Z" transform="translate(-72.38 -28.58)"/><path class="cls-41" d="M86,144.05a12.18,12.18,0,0,0,1.47-.78c.38-.24.88-.59,1-1.06a.34.34,0,0,0-.23-.41,1.88,1.88,0,0,0-1.41.48,13.89,13.89,0,0,0-1.32,1.09c-.38.35.11.88.53.68Z" transform="translate(-72.38 -28.58)"/><path class="cls-41" d="M83.91,157.12c.57-.27,1.18-.46,1.74-.76s1-.41,1.18-.94a.34.34,0,0,0-.24-.42c-.52-.16-1,.27-1.43.52s-1,.73-1.56,1.07a.31.31,0,0,0,.31.53Z" transform="translate(-72.38 -28.58)"/><path class="cls-41" d="M94.1,164.89a49.08,49.08,0,0,1,7-6c2.13-1.42,5-2.05,6.81-3.75a.6.6,0,0,0-.42-1c-2.61.15-5.09,2.32-7.09,3.86a26.36,26.36,0,0,0-6.44,6.76c-.06.1.09.21.17.13Z" transform="translate(-72.38 -28.58)"/><path class="cls-41" d="M136.62,280.62a2,2,0,0,0,1.07.62c.41.13.8.29,1.21.42a.82.82,0,0,0,.63-1.5,3.83,3.83,0,0,0-1.63-.42,1.47,1.47,0,0,0-1.32.58.24.24,0,0,0,0,.3Z" transform="translate(-72.38 -28.58)"/><path class="cls-41" d="M115.4,261.41c.19-.25.73-.29,1-.41s.85-.16,1.27-.27a.57.57,0,0,0,0-1.09A2,2,0,0,0,116,260a1.37,1.37,0,0,0-.53.59.64.64,0,0,0-.08.3,1,1,0,0,1-.14.44c0,.09.08.2.15.11Z" transform="translate(-72.38 -28.58)"/><path class="cls-41" d="M184.33,258.19c3.23,2.42,7.23,2.65,11.06,1.75,3.07-.72,8.05-2.65,9.06-5.95.18-.57-.43-1.28-1-1-1.37.53-2.21,1.59-3.42,2.42a16.82,16.82,0,0,1-5.21,2.36c-3.38.88-6.95.6-10.38.19-.15,0-.17.19-.07.27Z" transform="translate(-72.38 -28.58)"/><path class="cls-41" d="M206.92,250.76a.7.7,0,0,0,0-1.39.7.7,0,0,0,0,1.39Z" transform="translate(-72.38 -28.58)"/><path class="cls-41" d="M157,140.4a8.61,8.61,0,0,0,5.14.26.11.11,0,0,0,0-.22c-1.68-.22-3.35,0-5-.35a.16.16,0,0,0-.08.31Z" transform="translate(-72.38 -28.58)"/><path class="cls-42" d="M153.87,140.59a76.32,76.32,0,0,0-27.67,2.57c-5.21,1.46-10.41,3.48-14.46,7.07-4.21,3.74-6.63,9.1-10.79,12.82s-7.87,5.29-11.28,9.86C82,183.13,79.31,195.29,85.28,207a24.75,24.75,0,0,0,8.23,9.57,39.75,39.75,0,0,0,9.68,4.14c22.9,7.48,46.12,13.93,69.05,21.37,6.42,2.09,13.09,4.2,19.79,3.42s13.48-5.31,14.59-12c-3.12,3.9-8,5.94-12.58,7.84a15.1,15.1,0,0,1-6.37,1.56c-3.66-.19-6.62-3-9.06-5.69-2.63-2.93-5.14-6.12-6.31-9.89-3.59-11.63,1.15-23,4.51-34,2.57-8.41.34-23.53,13.48-22.86,5.82.3,10.88,4.74,13.17,10.11C199.88,165,187.88,152,173.23,145.56A63.29,63.29,0,0,0,153.87,140.59Z" transform="translate(-72.38 -28.58)"/><g class="cls-43"><path class="cls-44" d="M152.43,185.39a.17.17,0,0,0,0-.33.17.17,0,0,0,0,.33Z" transform="translate(-72.38 -28.58)"/></g><path class="cls-45" d="M152.27,186a1.58,1.58,0,0,0,.24.15.43.43,0,0,0,.58-.15.33.33,0,0,0,0-.33.43.43,0,0,0-.52-.3l-.26.08a.3.3,0,0,0-.08.55Z" transform="translate(-72.38 -28.58)"/><path class="cls-45" d="M157.5,186.48a1,1,0,0,0,.8.48.37.37,0,0,0,.38-.38,1,1,0,0,0-.48-.8.5.5,0,0,0-.7.7Z" transform="translate(-72.38 -28.58)"/><g class="cls-43"><path class="cls-44" d="M199.4,161.7a.41.41,0,0,0,0-.81.41.41,0,0,0,0,.81Z" transform="translate(-72.38 -28.58)"/></g><g class="cls-43"><path class="cls-44" d="M205.27,168.09a.47.47,0,0,0,0-.94.47.47,0,0,0,0,.94Z" transform="translate(-72.38 -28.58)"/></g><path class="cls-45" d="M203.46,171.26c-.16,0-.29,0-.45,0a.45.45,0,0,0,0,.9,2.27,2.27,0,0,0,.45,0,.42.42,0,0,0,0-.84Z" transform="translate(-72.38 -28.58)"/></g></g></svg>