<svg xmlns="http://www.w3.org/2000/svg" width="30.081" height="24.985" viewBox="0 0 30.081 24.985">
  <g id="left-arrow" transform="translate(-55 -77.667)">
    <path id="Path_20" data-name="Path 20" d="M28.39,51.808l.047.01H8.308l6.328-6.342a1.662,1.662,0,0,0,0-2.336l-.985-.985a1.647,1.647,0,0,0-2.325,0L.479,53a1.658,1.658,0,0,0,0,2.333L11.327,66.18a1.648,1.648,0,0,0,2.325,0l.985-.985a1.629,1.629,0,0,0,.48-1.162,1.58,1.58,0,0,0-.48-1.14l-6.4-6.377H28.413a1.7,1.7,0,0,0,1.668-1.687V53.434A1.672,1.672,0,0,0,28.39,51.808Z" transform="translate(55 35.993)" fill="#fff"/>
  </g>
</svg>
