<svg xmlns="http://www.w3.org/2000/svg" xmlns:xlink="http://www.w3.org/1999/xlink" width="48" height="39" viewBox="0 0 48 39">
  <defs>
    <clipPath id="clip-Tavola_da_disegno_2">
      <rect width="48" height="39"/>
    </clipPath>
  </defs>
  <g id="Tavola_da_disegno_2" data-name="Tavola da disegno – 2" clip-path="url(#clip-Tavola_da_disegno_2)">
    <path id="info" d="M47.863,34.762l-.545,2.226c-1.632.646-2.939,1.136-3.91,1.475a10.315,10.315,0,0,1-3.393.507A6.784,6.784,0,0,1,35.4,37.522a4.693,4.693,0,0,1-1.646-3.679,12.828,12.828,0,0,1,.122-1.769c.084-.6.216-1.281.4-2.043L36.318,22.8c.182-.7.349-1.345.458-1.967a8.523,8.523,0,0,0,.185-1.695,2.622,2.622,0,0,0-.57-1.932,3.242,3.242,0,0,0-2.2-.545,5.7,5.7,0,0,0-1.625.248c-.556.164-1.031.325-1.429.472l.545-2.229q2.006-.818,3.844-1.4A11.5,11.5,0,0,1,39,13.171,6.6,6.6,0,0,1,43.544,14.6a4.721,4.721,0,0,1,1.6,3.7c0,.314-.035.867-.112,1.66a11.052,11.052,0,0,1-.409,2.177l-2.034,7.2c-.164.577-.314,1.24-.447,1.985a10.3,10.3,0,0,0-.2,1.681,2.432,2.432,0,0,0,.639,1.957,3.591,3.591,0,0,0,2.226.517,6.464,6.464,0,0,0,1.681-.259A9.364,9.364,0,0,0,47.863,34.762Zm.5-30.239a4.214,4.214,0,0,1-1.422,3.208,4.846,4.846,0,0,1-3.428,1.335,4.892,4.892,0,0,1-3.442-1.324,4.193,4.193,0,0,1-1.436-3.218,4.252,4.252,0,0,1,1.436-3.218,5.088,5.088,0,0,1,6.87,0,4.263,4.263,0,0,1,1.422,3.218Z" transform="translate(-16.14 0.029)" fill="#fff"/>
  </g>
</svg>
