<svg xmlns="http://www.w3.org/2000/svg" xmlns:xlink="http://www.w3.org/1999/xlink" width="48.333" height="48.965" viewBox="0 0 28.333 42.965">
  <defs>
    <clipPath id="clip-path">
      <rect width="28.333" height="42.965" fill="none"/>
    </clipPath>
  </defs>
  <g id="question-mark" clip-path="url(#clip-path)">
    <path id="Path_89" data-name="Path 89" d="M18.925,0c7.432,0,14.748,3.423,14.748,11.609,0,7.55-8.651,10.453-10.509,13.181-1.395,2.029-.929,4.88-4.761,4.88a3.7,3.7,0,0,1-3.716-3.888c0-6.914,10.158-8.478,10.158-14.171,0-3.134-2.085-4.991-5.571-4.991-7.432,0-4.53,7.662-10.158,7.662a3.475,3.475,0,0,1-3.776-3.54C5.339,5.046,11.84,0,18.925,0Zm-.289,33.44A4.763,4.763,0,1,1,13.873,38.2,4.784,4.784,0,0,1,18.636,33.44Z" transform="translate(-5.34)" fill="#fff"/>
  </g>
</svg>
