<svg xmlns="http://www.w3.org/2000/svg" width="50" height="41.11" viewBox="0 0 50 41.11">
  <path id="heart" d="M61.194,75.09H57.133A15.721,15.721,0,0,0,58,65.061c-1.1-4.153-4.791-8.661-10.262-8.661a11.72,11.72,0,0,0-4.431.912,22.23,22.23,0,0,0-5.11,2.836,21.142,21.142,0,0,0-5.11-2.836,11.889,11.889,0,0,0-4.431-.912c-5.475,0-9.171,4.508-10.266,8.661A16.187,16.187,0,0,0,19.667,76H14.744a.815.815,0,0,0,0,1.621h5.793a10.883,10.883,0,0,0,.822,1.368c4.746,7.6,15.055,15.853,16.928,16.36V95.4a.137.137,0,0,0,.092-.051h.137V95.3c1.6-.861,11.5-7.952,16.7-16.36a18.94,18.94,0,0,0,1.278-2.279h4.791a.742.742,0,0,0,.531-.247.786.786,0,0,0,.2-.563A.8.8,0,0,0,61.194,75.09Zm-7.3,2.988C49.055,85.929,40.158,92.26,38.241,93.627,36.281,92.26,27.43,85.878,22.547,78.078l-.274-.456h6.708a.746.746,0,0,0,.684-.456l3.057-6.686,4.79,13.625a.752.752,0,0,0,.684.507h.046A.745.745,0,0,0,38.927,84l4.2-15.955L45.361,76.1a.731.731,0,0,0,.6.559.716.716,0,0,0,.728-.356l1.78-2.887,1.505,2.836a.718.718,0,0,0,.639.405h4.106C54.441,77.166,54.168,77.622,53.892,78.078Zm1.644-2.988H51.061L49.19,71.544a.719.719,0,0,0-.639-.405.671.671,0,0,0-.639.355l-1.552,2.532L43.855,64.96a.867.867,0,0,0-.73-.608.8.8,0,0,0-.73.608L38.151,81.218,33.543,68.151a.7.7,0,0,0-.639-.506.7.7,0,0,0-.684.456l-3.605,7.851H21.361a14.97,14.97,0,0,1-1.506-10.434c.959-3.6,4.107-7.445,8.852-7.445a11.075,11.075,0,0,1,3.924.81,21.574,21.574,0,0,1,5.157,2.938.643.643,0,0,0,.912,0,19.319,19.319,0,0,1,5.156-2.938,10.068,10.068,0,0,1,3.924-.81c4.7,0,7.894,3.849,8.852,7.445A14.626,14.626,0,0,1,55.536,75.09Z" transform="translate(-13.016 -55.4)" fill="#fff" stroke="#fff" stroke-width="2"/>
</svg>
