<svg xmlns="http://www.w3.org/2000/svg" width="48" height="48.001" viewBox="0 0 48 48.001">
  <g id="settings-work-tool" transform="translate(-0.003 0)">
    <g id="Group_18" data-name="Group 18" transform="translate(0.003 0)">
      <path id="Path_109" data-name="Path 109" d="M47.853,21.336a1.563,1.563,0,0,0-1.543-1.182,5.3,5.3,0,0,1-3.628-9.224,1.333,1.333,0,0,0,.146-1.81,23.75,23.75,0,0,0-3.8-3.84,1.336,1.336,0,0,0-1.824.147,5.532,5.532,0,0,1-5.986,1.345,5.331,5.331,0,0,1-3.242-5.211A1.331,1.331,0,0,0,26.8.16,23.961,23.961,0,0,0,21.4.146a1.336,1.336,0,0,0-1.188,1.373A5.34,5.34,0,0,1,16.922,6.64a5.547,5.547,0,0,1-5.941-1.353,1.338,1.338,0,0,0-1.811-.152A23.839,23.839,0,0,0,5.287,8.973,1.335,1.335,0,0,0,5.43,10.8a5.318,5.318,0,0,1,1.342,5.988A5.549,5.549,0,0,1,1.55,20.03,1.3,1.3,0,0,0,.163,21.208a24.043,24.043,0,0,0-.01,5.458,1.588,1.588,0,0,0,1.574,1.18,5.264,5.264,0,0,1,4.938,3.289,5.337,5.337,0,0,1-1.342,5.935,1.334,1.334,0,0,0-.146,1.808,23.835,23.835,0,0,0,3.8,3.841,1.335,1.335,0,0,0,1.827-.145,5.523,5.523,0,0,1,5.983-1.346,5.322,5.322,0,0,1,3.247,5.209,1.333,1.333,0,0,0,1.178,1.4,23.887,23.887,0,0,0,5.4.014A1.336,1.336,0,0,0,27.8,46.481a5.334,5.334,0,0,1,3.284-5.118,5.539,5.539,0,0,1,5.944,1.352,1.341,1.341,0,0,0,1.811.151,23.894,23.894,0,0,0,3.883-3.839,1.333,1.333,0,0,0-.143-1.824,5.318,5.318,0,0,1-1.345-5.987,5.373,5.373,0,0,1,4.91-3.254l.3.008a1.336,1.336,0,0,0,1.4-1.177A24.022,24.022,0,0,0,47.853,21.336ZM24.041,32.057a8.006,8.006,0,1,1,8.005-8.006A8.014,8.014,0,0,1,24.041,32.057Z" transform="translate(-0.003 0)" fill="#fff" fill-rule="evenodd"/>
    </g>
  </g>
</svg>
